<svg width="313" height="125" viewBox="0 0 313 125" fill="none" xmlns="http://www.w3.org/2000/svg">
<path d="M39.3202 90.3614H22.4962C20.5758 90.3614 19 88.8365 19 86.8664V77.7159C19 75.7989 20.5758 74.2209 22.4962 74.2209V74.166H39.3202V78.0588H24.1725V86.3817H39.3197L39.3202 90.3614Z" fill="black"/>
<path d="M41.6328 86.8647V77.7142C41.6328 75.7441 43.256 74.1643 45.1764 74.1643H45.3187H47.1951H62.2068H63.9809H64.0158C65.9459 74.2192 67.5148 75.7441 67.5148 77.7142V86.8647C67.5148 88.8348 65.9459 90.3597 64.0158 90.3597H62.2062H47.1945H45.3187H45.1324C43.256 90.3614 41.6328 88.8365 41.6328 86.8647ZM47.1945 86.38H62.2062H62.3583V78.0571H62.2062H47.1945H46.9951V86.38H47.1945Z" fill="black"/>
<path d="M70.374 74.166H91.475C93.5028 74.2209 95.0186 75.7463 95.0186 77.7159V90.3614H89.8621V78.0588H75.4865V90.3614H70.374V74.166Z" fill="black"/>
<path d="M97.1797 77.7159C97.1797 75.7463 98.7577 74.2209 100.675 74.166H117.499V78.0588H102.355V86.3817H117.499V90.3625H100.675C98.7577 90.3625 97.1797 88.8376 97.1797 86.8675V77.7159Z" fill="black"/>
<path d="M120.853 77.7159C120.853 75.7463 122.479 74.166 124.342 74.166H141.176V78.0588H126.019V80.365H141.176V84.203H126.019V86.3817H141.176V90.3625H124.342C122.422 90.3625 120.853 88.8376 120.853 86.8675V77.7159Z" fill="black"/>
<path d="M149.389 85.194V90.3614H144.026V74.166H161.54C163.461 74.2209 165.039 75.7463 165.039 77.7159V81.547V81.6996C165.039 83.6646 163.461 85.194 161.54 85.194H149.389ZM159.863 81.1606V78.0571H149.389V81.1606H159.863Z" fill="black"/>
<path d="M180.238 78.057V90.3602H175.083V78.0582H167.396V74.1648H187.862V78.0582L180.238 78.057Z" fill="black"/>
<path d="M190.229 77.7159C190.229 75.7463 191.807 74.2209 193.727 74.166H195.547H210.553H212.424H212.566C214.486 74.166 216.065 75.7463 216.065 77.7159V86.8664C216.065 88.8365 214.486 90.3614 212.566 90.3614H212.424H210.553H195.547H193.727C191.807 90.3614 190.229 88.8365 190.229 86.8664V77.7159ZM195.547 86.38H210.553H210.705V78.0571H210.553H195.547H195.404V86.38H195.547Z" fill="black"/>
<path d="M218.422 80.7194V77.7142C218.422 75.7441 219.947 74.1643 221.921 74.1643H222.062H238.939V78.0571H223.739V80.3633H235.396C237.316 80.3633 238.938 81.9385 238.938 83.8583V86.8647C238.938 88.8348 237.316 90.3597 235.396 90.3597H218.421V86.3783H233.72V84.1995H222.063H221.922C219.948 84.2013 218.422 82.6409 218.422 80.7194Z" fill="black"/>
<path d="M240.906 90.3615V86.3801H246.269V90.3615H240.906Z" fill="black"/>
<path d="M247.901 86.8647V77.7142C247.901 75.7441 249.469 74.1643 251.39 74.1643H268.411V78.0571H253.066V86.38H268.411V90.3614H251.39C249.47 90.3614 247.901 88.8365 247.901 86.8647Z" fill="black"/>
<path d="M289.42 84.8465V84.9002L292.083 90.3614H286.424L284.265 85.194H276.085V90.3614H270.724V74.166H288.192H288.247C290.211 74.2209 291.789 75.7463 291.789 77.7159V81.547C291.789 83.077 290.803 84.407 289.42 84.8465ZM286.57 81.1606V78.0571H276.085V81.1606H286.57Z" fill="black"/>
<path d="M190.229 77.7159C190.229 75.7464 191.807 74.2209 193.727 74.166H195.547H210.553H212.424H212.566C214.486 74.166 216.065 75.7464 216.065 77.7159V86.8664C216.065 88.8365 214.486 90.3614 212.566 90.3614H212.424H210.553H195.547H193.727C191.807 90.3614 190.229 88.8365 190.229 86.8664V77.7159ZM195.547 86.38H210.553H210.705V78.0571H210.553H195.547H195.404V86.38H195.547ZM218.422 80.7194V77.7142C218.422 75.7441 219.948 74.1643 221.921 74.1643H222.063H238.94V78.0571H223.739V80.3633H235.397C237.317 80.3633 238.939 81.9385 238.939 83.8583V86.8647C238.939 88.8348 237.317 90.3597 235.397 90.3597H218.421V86.3783H233.72V84.1995H222.063H221.922C219.948 84.2013 218.422 82.6409 218.422 80.7194ZM240.907 90.3614V86.38H246.269V90.3614H240.907Z" fill="black"/>
<path d="M252.123 26C255.326 26 257.783 28.5017 257.783 31.6595C257.783 34.807 255.324 37.3155 252.123 37.3155C248.986 37.3155 246.464 34.807 246.464 31.6595C246.464 28.5022 248.986 26 252.123 26ZM252.079 28.0181C252.382 28.86 252.626 29.5779 252.966 30.581C253.443 30.565 254.716 30.5461 255.467 30.6187C255.648 29.8374 255.756 29.2807 255.818 28.4577C255.345 27.9547 254.582 27.4071 253.9 26.9425C253.443 27.218 252.715 27.6763 252.079 28.0181Z" fill="#2780B9"/>
<path d="M253.703 42.2856C260.357 42.2856 265.458 47.4867 265.458 54.0418C265.458 60.578 260.355 65.7974 253.703 65.7974C247.183 65.7974 241.948 60.578 241.948 54.0418C241.947 47.4867 247.183 42.2856 253.703 42.2856ZM253.614 46.4717C254.24 48.2309 254.743 49.7209 255.452 51.8088C256.436 51.7733 259.084 51.7265 260.654 51.8814C261.029 50.2587 261.245 49.1008 261.379 47.389C260.394 46.3482 258.807 45.2091 257.39 44.2415C256.436 44.8233 254.93 45.7727 253.614 46.4717Z" fill="#2780B9"/>
<path d="M235.983 31.9631C240.824 31.9631 244.538 35.7473 244.538 40.5175C244.538 45.2785 240.824 49.0816 235.983 49.0816C231.238 49.0816 227.421 45.2785 227.421 40.5175C227.419 35.7473 231.238 31.9631 235.983 31.9631ZM235.911 35.0129C236.375 36.2943 236.746 37.3791 237.256 38.8949C237.974 38.8697 239.901 38.8411 241.039 38.9486C241.309 37.7655 241.479 36.9299 241.572 35.6742C240.853 34.9209 239.695 34.0893 238.674 33.3897C237.972 33.8109 236.878 34.5008 235.911 35.0129Z" fill="#2780B9"/>
<path d="M218.72 47.1992C233.48 47.1992 245.185 58.964 245.185 73.5841C245.185 77.5638 244.26 81.3583 242.725 84.7482H240.906H240.564V83.8583C240.564 82.1356 239.621 80.5593 238.304 79.6791H238.939H240.564V78.0554V74.1626V72.5942H238.939H222.062H221.921C219.804 72.5942 218.028 73.8745 217.239 75.596C216.407 73.8745 214.638 72.5942 212.566 72.5942H212.423H210.552H195.546H193.726C193.179 72.5942 192.784 72.6388 192.3 72.7897C192.74 58.5793 204.299 47.1992 218.72 47.1992ZM218.513 56.5452C219.936 60.4894 221.07 63.8341 222.654 68.5351C224.879 68.4431 230.826 68.3648 234.35 68.6957C235.182 65.0549 235.685 62.4544 235.981 58.5982C233.764 56.2571 230.195 53.7006 227.014 51.5213C224.879 52.8112 221.481 54.9563 218.513 56.5452ZM217.643 83.6154C217.982 84.0017 218.378 84.407 218.72 84.7482H218.422H217.643V83.6154ZM199.725 91.9828H210.55H212.422H212.564C214.289 91.9828 215.867 91.0964 216.743 89.7578V90.3596V91.9828H218.421H235.397C236.966 91.9828 238.348 91.3364 239.336 90.2082C234.467 96.1626 227.086 99.9999 218.72 99.9999C211.24 99.9999 204.505 96.9439 199.725 91.9828ZM197.016 79.6808H209.124V84.7482H197.016V79.6808Z" fill="#2780B9"/>
</svg>
