<svg width="8592" height="1678" viewBox="0 0 8592 1678" fill="none" xmlns="http://www.w3.org/2000/svg">
<g clip-path="url(#clip0_5_2)">
<rect width="8592" height="1678" fill="white"/>
<path d="M8153.56 1677.73C8000.45 1677.73 7890.99 1645.5 7825.17 1581.05C7759.36 1516.26 7724.92 1411.4 7721.85 1266.48C7719.8 1179.52 7718.27 1100.41 7717.25 1029.14C7716.56 957.872 7716.22 889.842 7716.22 825.052C7716.56 759.921 7717.08 693.937 7717.76 627.101C7718.78 559.924 7720.14 487.291 7721.85 409.201C7724.92 264.617 7759.36 160.271 7825.17 96.1624C7891.33 32.0541 8000.79 0 8153.56 0C8303.94 0 8411.87 32.2246 8477.34 96.6739C8542.81 160.782 8578.1 264.958 8583.22 409.201C8586.29 497.18 8588.5 577.485 8589.87 650.119C8591.57 722.411 8592.26 791.293 8591.91 856.765C8591.91 922.238 8591.06 988.051 8589.36 1054.2C8587.99 1120.36 8585.95 1191.12 8583.22 1266.48C8577.76 1410.04 8542.81 1514.56 8478.36 1580.03C8413.91 1645.16 8305.64 1677.73 8153.56 1677.73ZM8153.56 1628.62C8284.16 1628.62 8377.08 1599.64 8432.33 1541.67C8487.57 1483.7 8517.41 1391.28 8521.84 1264.43C8524.57 1187.37 8526.61 1115.24 8527.98 1048.07C8529.68 980.89 8530.53 914.735 8530.53 849.604C8530.53 784.132 8529.85 715.932 8528.49 645.004C8527.12 573.734 8524.91 495.816 8521.84 411.247C8517.41 284.736 8487.4 192.836 8431.81 135.548C8376.57 77.9188 8283.82 49.1042 8153.56 49.1042C8020.57 49.1042 7926.28 77.9188 7870.7 135.548C7815.11 192.836 7785.96 284.565 7783.23 410.736C7781.18 497.35 7779.65 576.292 7778.63 647.561C7777.94 718.489 7777.6 786.349 7777.6 851.139C7777.95 915.929 7778.46 981.742 7779.14 1048.58C7780.16 1115.07 7781.53 1187.2 7783.23 1264.94C7785.96 1391.8 7815.11 1484.21 7870.7 1542.18C7926.28 1599.81 8020.57 1628.62 8153.56 1628.62ZM8153.56 1579.52C8043.07 1579.52 7964.64 1554.62 7918.27 1504.84C7871.89 1454.71 7847.34 1374.4 7844.61 1263.92C7842.56 1177.31 7841.03 1098.54 7840.01 1027.61C7839.32 956.338 7838.98 888.478 7838.98 824.029C7839.32 759.58 7839.84 694.108 7840.52 627.613C7841.54 561.117 7842.91 489.166 7844.61 411.759C7847 301.615 7871.55 221.821 7918.27 172.376C7965.32 122.931 8043.76 98.2084 8153.56 98.2084C8263.36 98.2084 8340.94 123.613 8386.29 174.422C8431.64 224.89 8456.37 304.514 8460.46 413.293C8463.53 497.521 8465.74 575.098 8467.11 646.027C8468.47 716.614 8469.15 784.473 8469.15 849.604C8469.15 914.735 8468.3 980.719 8466.6 1047.56C8465.23 1114.39 8463.19 1186 8460.46 1262.39C8456.37 1370.48 8431.81 1450.45 8386.8 1502.28C8342.13 1553.77 8264.38 1579.52 8153.56 1579.52ZM8153.56 1530.41C8240.51 1530.41 8302.23 1508.76 8338.72 1465.45C8375.55 1422.14 8395.67 1353.77 8399.08 1260.34C8401.81 1183.61 8403.85 1111.83 8405.22 1045C8406.92 977.821 8407.77 911.837 8407.77 847.047C8407.77 781.916 8407.09 714.568 8405.73 645.004C8404.36 575.098 8402.15 498.714 8399.08 415.851C8395.67 326.168 8376.4 258.99 8341.28 214.319C8306.5 169.648 8243.92 147.313 8153.56 147.313C8063.53 147.313 8000.28 168.796 7963.79 211.762C7927.3 254.728 7908.04 321.905 7905.99 413.293C7903.94 499.567 7902.41 578.167 7901.39 649.096C7900.71 720.024 7900.36 787.713 7900.36 852.162C7900.71 916.611 7901.22 981.913 7901.9 1048.07C7902.92 1114.22 7904.29 1185.66 7905.99 1262.39C7908.04 1357.87 7928.16 1426.41 7966.35 1468.01C8004.54 1509.61 8066.94 1530.41 8153.56 1530.41ZM8153.56 1481.31C8085.7 1481.31 8038.13 1463.58 8010.85 1428.11C7983.57 1392.31 7969.08 1336.72 7967.37 1261.36C7964.98 1146.45 7963.28 1044.49 7962.26 955.485C7961.57 866.143 7961.74 779.188 7962.77 694.619C7963.79 609.71 7965.32 516.276 7967.37 414.316C7969.08 339.296 7983.57 284.224 8010.85 249.101C8038.47 213.978 8086.04 196.417 8153.56 196.417C8221.76 196.417 8268.82 215.172 8294.73 252.682C8320.99 289.851 8335.31 344.923 8337.7 417.897C8340.43 494.963 8342.47 567.085 8343.84 634.262C8345.54 701.439 8346.39 767.423 8346.39 832.213C8346.39 896.662 8345.71 963.499 8344.35 1032.72C8342.98 1101.95 8340.77 1177.31 8337.7 1258.81C8334.97 1333.83 8320.14 1389.75 8293.2 1426.58C8266.6 1463.07 8220.05 1481.31 8153.56 1481.31ZM8153.56 1432.2C8197.89 1432.2 8228.75 1417.71 8246.14 1388.73C8263.87 1359.74 8273.93 1315.92 8276.32 1257.27C8279.39 1177.48 8281.6 1103.48 8282.97 1035.28C8284.33 967.079 8285.01 900.754 8285.01 836.305C8285.01 771.856 8284.33 705.872 8282.97 638.354C8281.6 570.836 8279.39 497.862 8276.32 419.431C8273.93 356.346 8263.19 311.675 8244.09 285.418C8225.34 258.82 8195.16 245.521 8153.56 245.521C8110.25 245.521 8078.88 258.649 8059.44 284.906C8040.34 311.164 8030.12 354.812 8028.75 415.851C8026.36 530.086 8024.66 631.705 8023.64 720.706C8022.95 809.707 8023.12 896.492 8024.15 981.06C8025.17 1065.29 8026.71 1158.21 8028.75 1259.83C8030.12 1317.46 8039.66 1360.59 8057.4 1389.24C8075.13 1417.88 8107.18 1432.2 8153.56 1432.2Z" fill="black"/>
<path d="M7508.11 1657.26V20.4598H7569.49V1657.26H7508.11ZM7262.59 1657.26V20.4598H7323.97V1657.26H7262.59ZM7385.35 1657.26V20.4598H7446.73V1657.26H7385.35Z" fill="black"/>
<path d="M6257.57 1657.26V20.4598H6672.91C6767.71 20.4598 6847.33 33.0769 6911.78 58.3109C6976.23 83.545 7025.16 126.682 7058.58 187.721C7092.34 248.419 7110.41 332.476 7112.8 439.891C7114.85 534.348 7116.21 624.202 7116.89 709.452C7117.58 794.703 7117.58 880.124 7116.89 965.715C7116.21 1050.97 7114.85 1140.99 7112.8 1235.79C7110.41 1344.57 7092.17 1429.65 7058.07 1491.03C7023.97 1552.07 6974.7 1595.03 6910.25 1619.93C6845.8 1644.82 6766.68 1657.26 6672.91 1657.26H6257.57ZM6318.95 1604.07H6672.91C6732.24 1604.07 6785.1 1598.27 6831.47 1586.68C6877.85 1575.08 6917.07 1555.48 6949.12 1527.86C6981.17 1500.23 7005.9 1462.55 7023.29 1414.81C7040.68 1367.07 7050.06 1307.06 7051.42 1234.76C7053.47 1139.63 7054.83 1049.6 7055.51 964.692C7056.19 879.783 7056.19 794.873 7055.51 709.964C7054.83 625.055 7053.47 535.371 7051.42 440.914C7049.38 344.07 7033.18 269.05 7002.83 215.853C6972.48 162.657 6929.34 125.659 6873.42 104.858C6817.84 84.0565 6751 73.6559 6672.91 73.6559H6318.95V1604.07ZM6380.33 1550.87V126.852H6672.91C6738.38 126.852 6794.31 135.718 6840.68 153.45C6887.4 171.182 6923.55 202.895 6949.12 248.589C6974.7 294.284 6988.34 358.903 6990.04 442.449C6991.75 513.718 6992.94 581.918 6993.62 647.049C6994.3 711.839 6994.64 775.777 6994.64 838.862C6994.64 901.607 6994.3 965.374 6993.62 1030.16C6992.94 1094.95 6991.75 1162.64 6990.04 1233.23C6988.34 1315.07 6975.04 1379.18 6950.14 1425.55C6925.59 1471.59 6890.13 1503.98 6843.75 1522.74C6797.38 1541.5 6740.43 1550.87 6672.91 1550.87H6380.33ZM6441.71 1497.68H6672.91C6753.04 1497.68 6815.45 1480.11 6860.12 1444.99C6905.13 1409.53 6927.98 1339.79 6928.66 1235.79C6929.34 1140.65 6929.68 1050.62 6929.68 965.715C6930.02 880.465 6930.02 795.214 6929.68 709.964C6929.68 624.714 6929.34 534.689 6928.66 439.891C6927.98 339.637 6905.98 271.266 6862.68 234.779C6819.71 198.292 6756.45 180.048 6672.91 180.048H6441.71V1497.68ZM6503.09 1444.48V233.244H6672.91C6714.85 233.244 6750.15 239.382 6778.79 251.659C6807.78 263.935 6829.6 285.077 6844.26 315.085C6859.27 344.752 6866.94 386.354 6867.28 439.891C6867.96 534.348 6868.3 624.202 6868.3 709.452C6868.64 794.703 6868.64 880.124 6868.3 965.715C6868.3 1050.97 6867.96 1140.99 6867.28 1235.79C6866.94 1317.63 6849.89 1372.87 6816.13 1401.51C6782.71 1430.16 6734.97 1444.48 6672.91 1444.48H6503.09ZM6564.47 1391.28H6672.91C6700.87 1391.28 6724.57 1386.85 6744.01 1377.99C6763.79 1369.12 6778.96 1353.43 6789.53 1330.93C6800.1 1308.42 6805.56 1276.71 6805.9 1235.79C6806.58 1141.67 6806.92 1051.99 6806.92 966.738C6807.26 881.488 6807.26 796.067 6806.92 710.475C6806.92 624.884 6806.58 534.689 6805.9 439.891C6805.56 382.944 6794.65 343.217 6773.16 320.711C6752.02 297.864 6718.6 286.441 6672.91 286.441H6564.47V1391.28Z" fill="black"/>
<path d="M5678.43 1677.73C5526.01 1677.73 5416.37 1645.84 5349.54 1582.07C5283.04 1518.31 5248.77 1413.11 5246.73 1266.48C5245.36 1163.5 5244.17 1060 5243.15 955.996C5242.46 851.991 5242.12 747.815 5242.12 643.469C5242.12 539.123 5242.46 434.947 5243.15 330.941C5244.17 226.595 5245.36 123.101 5246.73 20.4598H5308.11C5306.74 123.101 5305.55 226.595 5304.53 330.941C5303.84 434.947 5303.5 539.123 5303.5 643.469C5303.5 747.815 5303.84 851.991 5304.53 955.996C5305.55 1060 5306.74 1163.5 5308.11 1266.48C5310.15 1395.72 5339.82 1488.47 5397.11 1544.73C5454.74 1600.66 5548.51 1628.62 5678.43 1628.62C5807.67 1628.62 5900.77 1600.66 5957.71 1544.73C6015 1488.47 6044.67 1395.72 6046.72 1266.48C6048.42 1163.5 6049.61 1060 6050.3 955.996C6050.98 851.991 6051.32 747.815 6051.32 643.469C6051.32 539.123 6050.98 434.947 6050.3 330.941C6049.61 226.595 6048.42 123.101 6046.72 20.4598H6108.1C6110.14 157.542 6111.51 295.648 6112.19 434.776C6112.87 573.905 6112.87 713.033 6112.19 852.162C6111.51 991.29 6110.14 1129.4 6108.1 1266.48C6106.05 1413.11 6071.78 1518.31 6005.28 1582.07C5939.13 1645.84 5830.18 1677.73 5678.43 1677.73ZM5678.43 1579.52C5568.63 1579.52 5490.03 1555.14 5442.63 1506.37C5395.57 1457.27 5371.19 1377.47 5369.49 1266.99C5368.12 1155.82 5366.93 1050.11 5365.91 949.858C5365.22 849.263 5364.88 750.032 5364.88 652.164C5364.88 553.956 5365.22 453.361 5365.91 350.378C5366.59 247.055 5367.78 137.082 5369.49 20.4598H5430.87C5429.16 136.741 5427.8 247.737 5426.78 353.447C5426.09 459.158 5425.75 562.14 5425.75 662.394C5426.09 762.308 5426.6 861.88 5427.29 961.111C5428.31 1060.34 5429.5 1161.45 5430.87 1264.43C5432.23 1358.89 5451.84 1426.92 5489.69 1468.52C5527.54 1509.78 5590.46 1530.41 5678.43 1530.41C5766.07 1530.41 5828.47 1509.61 5865.64 1468.01C5903.15 1426.41 5922.59 1358.55 5923.95 1264.43C5925.66 1162.13 5926.85 1059.15 5927.54 955.485C5928.22 851.48 5928.56 747.474 5928.56 643.469C5928.56 539.123 5928.22 434.947 5927.54 330.941C5926.85 226.595 5925.66 123.101 5923.95 20.4598H5985.34C5987.04 138.787 5988.23 250.977 5988.92 357.028C5989.6 463.079 5989.94 565.891 5989.94 665.463C5989.94 765.036 5989.43 864.267 5988.4 963.157C5987.72 1061.71 5986.7 1162.98 5985.34 1266.99C5983.97 1376.79 5959.93 1456.42 5913.21 1505.86C5866.5 1554.96 5788.24 1579.52 5678.43 1579.52ZM5678.43 1481.31C5613.64 1481.31 5566.76 1464.43 5537.77 1430.67C5508.79 1396.57 5493.61 1340.48 5492.25 1262.39C5490.2 1126.67 5488.84 989.414 5488.16 850.627C5487.47 711.84 5487.47 572.882 5488.16 433.753C5488.84 294.625 5490.2 156.86 5492.25 20.4598H5553.63C5552.26 117.645 5551.07 217.047 5550.05 318.665C5549.37 420.284 5549.02 523.436 5549.02 628.124C5549.02 732.47 5549.37 837.669 5550.05 943.72C5550.73 1049.77 5552.09 1155.99 5554.14 1262.39C5555.16 1324.45 5565.56 1368.27 5585.34 1393.84C5605.46 1419.42 5636.49 1432.2 5678.43 1432.2C5719.69 1432.2 5750.04 1419.42 5769.48 1393.84C5789.26 1368.27 5799.66 1324.45 5800.68 1262.39C5803.07 1126.67 5804.6 989.244 5805.29 850.115C5805.97 710.987 5805.97 571.859 5805.29 432.73C5804.6 293.602 5803.24 156.178 5801.19 20.4598H5862.57C5864.28 122.078 5865.47 224.89 5866.16 328.895C5866.84 432.56 5867.18 536.565 5867.18 640.911C5867.18 744.917 5866.84 848.922 5866.16 952.927C5865.47 1056.93 5864.28 1160.09 5862.57 1262.39C5861.21 1340.48 5846.21 1396.57 5817.56 1430.67C5788.92 1464.43 5742.54 1481.31 5678.43 1481.31Z" fill="black"/>
<path d="M4721.39 1657.26V180.048H4334.69V126.852H5167.42V180.048H4782.77V1657.26H4721.39ZM4598.63 1657.26V286.441H4334.69V233.244H4660.01V1657.26H4598.63ZM4844.15 1657.26V233.244H5167.42V286.441H4905.53V1657.26H4844.15ZM4334.69 73.6559V20.4598H5167.42V73.6559H4334.69Z" fill="black"/>
<path d="M3842.91 1677.73C3701.74 1677.73 3596.88 1646.86 3528.34 1585.14C3460.14 1523.42 3423.14 1417.2 3417.34 1266.48C3416.66 1249.09 3416.32 1225.22 3416.32 1194.87C3416.32 1164.52 3417 1134.85 3418.37 1105.87C3419.73 1076.88 3422.12 1056.08 3425.53 1043.46H3486.4C3484.01 1055.4 3481.96 1073.3 3480.26 1097.17C3478.55 1121.04 3477.53 1147.81 3477.19 1177.48C3477.19 1206.8 3477.7 1235.79 3478.72 1264.43C3483.84 1395.38 3514.87 1488.81 3571.82 1544.74C3628.77 1600.66 3719.13 1628.62 3842.91 1628.62C3969.43 1628.62 4061.15 1600.49 4118.1 1544.22C4175.05 1487.62 4206.08 1394.18 4211.2 1263.92C4211.88 1246.87 4212.39 1230.5 4212.73 1214.82C4213.41 1199.13 4213.75 1183.61 4213.75 1168.27C4214.09 1152.58 4213.92 1136.39 4213.24 1119.68C4209.49 1025.56 4184.77 948.836 4139.07 889.501C4093.72 830.167 4031.15 789.588 3951.35 767.764L3761.59 715.591C3739.76 709.453 3721.01 699.393 3705.32 685.412C3689.63 671.09 3677.53 653.017 3669 631.193C3660.48 609.369 3655.7 583.964 3654.68 554.979C3653.66 526.676 3653.15 503.147 3653.15 484.392C3653.15 465.296 3653.66 442.278 3654.68 415.339C3657.75 338.955 3673.78 283.372 3702.76 248.59C3732.09 213.808 3778.81 196.417 3842.91 196.417C3902.25 196.417 3945.9 213.296 3973.86 247.055C4001.82 280.814 4017.51 337.421 4020.92 416.874C4021.94 442.79 4021.94 476.72 4020.92 518.663C4020.23 560.606 4019.04 599.139 4017.34 634.262H3955.96C3957.66 600.503 3958.85 561.799 3959.54 518.151C3960.56 474.162 3960.73 442.108 3960.05 421.989C3957.32 352.766 3945.9 306.049 3925.78 281.837C3906 257.626 3878.38 245.521 3842.91 245.521C3799.27 245.521 3767.72 259.672 3748.29 287.975C3729.19 315.938 3718.28 360.609 3715.55 421.989C3714.53 445.859 3714.19 469.218 3714.53 492.065C3715.21 514.571 3715.72 534.86 3716.06 552.933C3716.74 572.711 3719.47 589.932 3724.25 604.595C3729.36 618.917 3736.35 630.682 3745.22 639.889C3754.08 648.755 3764.65 654.893 3776.93 658.303L3965.67 707.918C4060.47 732.811 4134.47 780.04 4187.67 849.604C4241.2 918.827 4270.19 1008 4274.62 1117.12C4275.3 1132.81 4275.47 1149.17 4275.13 1166.22C4275.13 1183.27 4274.79 1200.32 4274.11 1217.37C4273.77 1234.42 4273.26 1250.79 4272.58 1266.48C4266.44 1413.11 4230.12 1518.31 4163.63 1582.07C4097.47 1645.84 3990.57 1677.73 3842.91 1677.73ZM3842.91 1579.52C3741.3 1579.52 3666.62 1555.48 3618.88 1507.4C3571.14 1458.97 3544.88 1377.13 3540.11 1261.87C3539.42 1239.37 3539.08 1213.45 3539.08 1184.13C3539.42 1154.8 3540.1 1127.18 3541.13 1101.26C3542.49 1075.01 3544.37 1055.74 3546.75 1043.46H3607.62C3605.58 1058.13 3603.87 1077.05 3602.51 1100.24C3601.14 1123.43 3600.29 1149 3599.95 1176.97C3599.95 1204.93 3600.46 1233.4 3601.49 1262.39C3605.24 1357.87 3625.87 1426.41 3663.38 1468.01C3701.23 1509.61 3761.07 1530.41 3842.91 1530.41C3926.12 1530.41 3986.82 1509.61 4025.01 1468.01C4063.54 1426.07 4084.68 1357.53 4088.43 1262.39C4089.46 1241.24 4090.14 1222.83 4090.48 1207.14C4090.82 1191.46 4090.99 1176.97 4090.99 1163.67C4091.33 1150.37 4091.16 1137.41 4090.48 1124.79C4088.78 1081.49 4081.1 1043.8 4067.46 1011.75C4053.82 979.355 4034.73 952.757 4010.17 931.956C3985.96 910.814 3956.81 895.81 3922.71 886.944L3730.38 836.817C3693.21 826.928 3659.97 810.56 3630.64 787.713C3601.31 764.524 3577.96 734.005 3560.56 696.154C3543.17 657.962 3533.63 612.097 3531.92 558.56C3531.24 537.418 3530.73 519.345 3530.39 504.341C3530.39 489.337 3530.39 474.844 3530.39 460.863C3530.73 446.541 3531.24 430.514 3531.92 412.782C3536.69 298.887 3563.46 218.07 3612.23 170.33C3661.33 122.249 3738.23 98.2084 3842.91 98.2084C3945.9 98.2084 4020.58 122.76 4066.95 171.865C4113.67 220.969 4139.24 301.615 4143.68 413.805C4144.7 439.721 4144.7 474.674 4143.68 518.663C4142.99 562.311 4141.63 600.844 4139.58 634.262H4078.72C4080.42 603.913 4081.79 567.255 4082.81 524.289C4083.83 480.982 4083.66 443.984 4082.3 413.293C4078.55 318.495 4057.92 250.465 4020.4 209.204C3983.24 167.943 3924.07 147.313 3842.91 147.313C3764.14 147.313 3703.79 166.409 3661.84 204.601C3620.24 242.793 3597.39 312.357 3593.3 413.293C3591.94 444.324 3591.43 469.218 3591.77 487.973C3592.11 506.728 3592.62 529.745 3593.3 557.025C3594.67 597.264 3601.49 632.387 3613.76 662.395C3626.38 692.062 3643.77 716.614 3665.93 736.051C3688.44 755.147 3715.04 768.787 3745.73 776.971L3937.03 827.098C4002.84 844.148 4054.33 877.907 4091.5 928.375C4128.67 978.503 4148.79 1043.12 4151.86 1122.23C4152.54 1136.22 4152.88 1149.69 4152.88 1162.64C4152.88 1175.26 4152.54 1189.24 4151.86 1204.59C4151.52 1219.93 4150.84 1238.86 4149.81 1261.36C4145.38 1372.53 4119.81 1453.35 4073.09 1503.81C4026.71 1554.28 3949.99 1579.52 3842.91 1579.52ZM3842.91 1481.31C3783.24 1481.31 3739.08 1464.26 3710.44 1430.16C3681.79 1396.06 3665.93 1338.43 3662.87 1257.27C3662.18 1233.4 3661.84 1208.17 3661.84 1181.57C3661.84 1154.97 3662.35 1129.57 3663.38 1105.36C3664.74 1081.14 3666.28 1060.51 3667.98 1043.46H3728.85C3727.14 1064.61 3725.61 1086.43 3724.25 1108.94C3723.22 1131.44 3722.71 1154.97 3722.71 1179.52C3722.71 1203.73 3723.22 1229.14 3724.25 1255.74C3726.63 1312 3735.84 1355.48 3751.87 1386.17C3768.23 1416.86 3798.58 1432.2 3842.91 1432.2C3884.17 1432.2 3914.35 1418.39 3933.45 1390.77C3952.89 1362.81 3963.8 1316.95 3966.19 1253.18C3967.21 1231.7 3967.72 1213.28 3967.72 1197.94C3968.06 1182.59 3968.23 1169.46 3968.23 1158.55C3968.23 1147.3 3968.06 1137.41 3967.72 1128.88C3967.04 1106.04 3963.63 1086.26 3957.49 1069.55C3951.35 1052.5 3942.83 1038.69 3931.92 1028.12C3921.34 1017.21 3908.56 1009.87 3893.55 1006.12L3699.69 955.485C3639.68 939.799 3588.36 914.224 3545.73 878.76C3503.11 842.955 3470.2 798.454 3447.01 745.258C3423.82 692.062 3411.21 631.193 3409.16 562.652C3408.14 529.575 3407.63 501.954 3407.63 479.789C3407.63 457.624 3408.14 434.094 3409.16 409.201C3415.3 263.253 3451.96 158.566 3519.13 95.1394C3586.31 31.7131 3694.24 0 3842.91 0C3984.77 0 4089.29 31.0311 4156.46 93.0934C4223.64 154.815 4260.3 260.184 4266.44 409.201C4267.46 435.117 4267.46 471.264 4266.44 517.64C4265.76 564.016 4264.39 602.89 4262.35 634.262H4200.97C4203.35 597.775 4204.89 558.048 4205.57 515.082C4206.25 471.775 4206.08 437.163 4205.06 411.247C4199.94 281.326 4169.08 188.574 4112.48 132.99C4056.21 77.0663 3966.36 49.1042 3842.91 49.1042C3716.4 49.1042 3623.99 76.8958 3565.68 132.479C3507.71 187.721 3476 280.473 3470.54 410.736C3469.18 442.449 3468.67 468.877 3469.01 490.019C3469.35 511.161 3469.86 534.69 3470.54 560.606C3472.59 619.258 3483.33 671.431 3502.77 717.125C3522.2 762.478 3549.82 800.33 3585.63 830.679C3621.43 861.028 3664.57 882.852 3715.04 896.151L3908.39 946.79C3932.6 952.928 3953.4 963.84 3970.79 979.526C3988.18 994.871 4001.82 1014.82 4011.71 1039.37C4021.94 1063.92 4027.74 1093.08 4029.1 1126.84C4029.78 1140.14 4029.95 1152.75 4029.61 1164.69C4029.61 1176.62 4029.44 1189.75 4029.1 1204.07C4028.76 1218.06 4028.08 1235.45 4027.05 1256.25C4023.64 1336.38 4007.79 1394.01 3979.48 1429.14C3951.52 1463.92 3906 1481.31 3842.91 1481.31Z" fill="black"/>
<path d="M2926.82 1657.27V1604.07H3274.64V1657.27H2926.82ZM2926.82 1444.48V1391.28H3274.64V1444.48H2926.82ZM2926.82 1550.87V1497.68H3274.64V1550.87H2926.82Z" fill="black"/>
<path d="M1990.28 1657.26L2135.55 1090.52L2201.02 806.126L2120.72 476.719L1998.47 20.4598H2063.94L2177.49 453.19L2252.17 783.109H2439.38L2509.97 453.19L2623.52 20.4598H2689L2566.75 476.719L2488.49 806.126L2551.91 1090.52L2699.23 1657.26H2633.75L2497.18 1118.65L2441.43 832.724H2250.13L2190.28 1118.65L2055.76 1657.26H1990.28ZM2123.28 1657.26L2232.74 1156.5L2286.96 882.852H2402.56L2454.73 1156.5L2564.19 1657.26H2500.76L2396.93 1183.1L2357.54 931.956H2329.92L2290.54 1183.1L2186.7 1657.26H2123.28ZM1865.48 1657.26L2078.26 806.126L1871.62 20.4598H1936.58L2141.69 806.126L1930.44 1657.26H1865.48ZM2757.03 1657.26L2545.78 806.126L2750.89 20.4598H2815.85L2609.2 806.126L2821.99 1657.26H2757.03ZM2284.91 733.493L2232.23 432.73L2129.41 20.4598H2192.84L2283.89 412.782L2328.9 682.343H2358.57L2403.58 412.782L2494.63 20.4598H2558.05L2455.24 432.73L2404.6 733.493H2284.91Z" fill="black"/>
<path d="M1012.68 1657.26V20.4598H1407.56C1499.97 20.4598 1578.06 32.2244 1641.83 55.7534C1705.94 79.2825 1755.21 120.032 1789.65 178.002C1824.43 235.632 1843.7 316.108 1847.45 419.431C1849.16 475.696 1850.01 528.722 1850.01 578.508C1850.35 628.294 1849.5 681.661 1847.45 738.608C1843.7 841.59 1824.43 922.067 1789.65 980.037C1755.21 1038.01 1705.94 1078.76 1641.83 1102.29C1578.06 1125.81 1499.97 1137.58 1407.56 1137.58H1319.58V1657.26H1258.2V1084.38H1407.56C1486.67 1084.38 1553.68 1074.15 1608.58 1053.69C1663.82 1033.23 1706.45 997.939 1736.46 947.812C1766.46 897.344 1783 827.098 1786.07 737.074C1787.44 699.222 1788.29 663.417 1788.63 629.658C1789.31 595.899 1789.31 562.14 1788.63 528.381C1788.29 494.281 1787.44 458.476 1786.07 420.966C1783 330.941 1766.46 260.866 1736.46 210.738C1706.45 160.27 1663.82 124.806 1608.58 104.346C1553.68 83.886 1486.67 73.6559 1407.56 73.6559H1074.06V1657.26H1012.68ZM1135.44 1657.26V126.852H1407.56C1472.35 126.852 1527.76 135.377 1573.8 152.427C1620.17 169.136 1656.15 198.974 1681.72 241.94C1707.64 284.565 1721.96 344.581 1724.69 421.989C1726.74 478.595 1727.76 531.109 1727.76 579.531C1727.76 627.612 1726.74 679.785 1724.69 736.051C1721.96 813.458 1707.64 873.645 1681.72 916.611C1656.15 959.236 1620.17 989.073 1573.8 1006.12C1527.76 1022.83 1472.35 1031.19 1407.56 1031.19H1196.82V1657.26H1135.44ZM1196.82 977.991H1407.56C1488.04 977.991 1549.93 960.77 1593.23 926.329C1636.54 891.547 1659.9 827.609 1663.31 734.516C1664.67 696.324 1665.53 660.86 1665.87 628.124C1666.55 595.388 1666.55 562.652 1665.87 529.915C1665.53 496.838 1664.67 461.374 1663.31 423.523C1660.24 336.909 1638.76 274.676 1598.86 236.825C1558.96 198.974 1495.2 180.048 1407.56 180.048H1196.82V977.991ZM1258.2 924.795V233.244H1407.56C1470.3 233.244 1517.7 247.396 1549.76 275.699C1582.15 303.661 1599.54 353.277 1601.93 424.546C1603.29 462.397 1604.15 497.861 1604.49 530.938C1605.17 563.674 1605.17 596.411 1604.49 629.147C1604.15 661.542 1603.29 696.324 1601.93 733.493C1599.54 804.762 1582.15 854.548 1549.76 882.852C1517.7 910.814 1470.3 924.795 1407.56 924.795H1258.2ZM1319.58 871.598H1407.56C1446.09 871.598 1477.47 862.221 1501.68 843.466C1525.89 824.711 1539.02 785.496 1541.06 725.821C1542.77 684.218 1543.62 635.626 1543.62 580.043C1543.62 524.118 1542.77 474.844 1541.06 432.219C1539.02 372.543 1525.89 333.328 1501.68 314.573C1477.47 295.818 1446.09 286.441 1407.56 286.441H1319.58V871.598Z" fill="black"/>
<path d="M436.055 1677.73C283.287 1677.73 173.484 1645.84 106.648 1582.07C39.8119 1518.31 5.37077 1413.11 3.32476 1266.48C1.61976 1156.33 0.596753 1055.06 0.255751 962.646C-0.0852504 869.894 -0.0852504 779.188 0.255751 690.527C0.937755 601.526 1.96076 507.751 3.32476 409.201C5.37077 263.253 39.6414 158.566 106.137 95.1394C172.632 31.7131 281.752 0 433.498 0C580.469 0 687.203 31.5426 753.698 94.6279C820.193 157.372 855.828 262.23 860.602 409.201C861.284 423.864 861.624 440.062 861.624 457.794C861.624 475.185 861.454 493.599 861.113 513.036C861.113 532.473 860.772 552.422 860.09 572.882C859.749 593.342 859.238 613.802 858.556 634.262H797.175C798.198 606.982 798.88 579.872 799.221 552.933C799.903 525.994 800.244 500.419 800.244 476.208C800.244 451.656 799.903 429.832 799.221 410.736C794.788 282.178 764.439 189.767 708.174 133.502C651.909 77.2368 560.35 49.1042 433.498 49.1042C303.235 49.1042 209.63 77.0663 152.683 132.99C95.736 188.915 66.41 281.326 64.705 410.224C63.341 507.751 62.3179 604.424 61.6359 700.246C61.2949 796.067 61.2949 891.036 61.6359 985.152C62.3179 1079.27 63.341 1172.7 64.705 1265.46C66.41 1395.04 96.0771 1487.96 153.706 1544.22C211.335 1600.49 305.452 1628.62 436.055 1628.62C563.59 1628.62 656.001 1600.49 713.289 1544.22C770.918 1487.96 802.29 1394.87 807.405 1264.94C808.428 1236.98 808.94 1203.39 808.94 1164.18C809.281 1124.96 808.769 1084.55 807.405 1042.95H868.786C870.15 1081.48 870.661 1122.06 870.32 1164.69C870.32 1206.97 869.809 1240.9 868.786 1266.48C863.329 1413.11 827.013 1518.31 759.836 1582.07C692.999 1645.84 585.073 1677.73 436.055 1677.73ZM436.055 1579.52C327.276 1579.52 248.846 1555.14 200.764 1506.37C152.683 1457.61 127.79 1377.13 126.085 1264.94C124.721 1168.78 123.698 1075.01 123.016 983.618C122.675 892.229 122.675 799.818 123.016 706.384C123.698 612.608 124.721 514.059 126.085 410.736C127.79 299.228 152.342 219.264 199.741 170.842C247.482 122.419 325.4 98.2084 433.498 98.2084C537.844 98.2084 613.546 122.59 660.604 171.353C708.004 219.775 733.749 299.569 737.841 410.736C738.523 426.081 738.864 443.131 738.864 461.886C738.864 480.3 738.694 499.567 738.353 519.686C738.012 539.464 737.671 559.242 737.33 579.02C736.989 598.457 736.477 616.871 735.795 634.262H674.415C675.779 597.093 676.631 564.868 676.972 537.588C677.313 509.967 677.484 486.097 677.484 465.978C677.484 445.859 677.143 428.638 676.461 414.316C673.051 319.518 652.42 251.318 614.569 209.716C577.059 168.114 516.702 147.313 433.498 147.313C346.883 147.313 284.48 167.773 246.288 208.693C208.437 249.272 188.829 316.62 187.465 410.736C186.101 505.193 185.078 598.798 184.396 691.55C184.055 783.961 184.055 877.566 184.396 972.365C185.078 1067.16 186.101 1165.71 187.465 1268.01C188.829 1362.81 208.948 1430.33 247.823 1470.57C286.697 1510.46 349.1 1530.41 435.032 1530.41C523.351 1530.41 585.925 1508.76 622.753 1465.45C659.922 1422.14 680.553 1354.12 684.645 1261.36C685.327 1244.65 685.838 1224.71 686.179 1201.52C686.52 1177.99 686.52 1152.75 686.179 1125.82C686.179 1098.53 685.668 1070.91 684.645 1042.95H746.025C747.048 1068.87 747.56 1095.81 747.56 1123.77C747.901 1151.73 747.901 1178.16 747.56 1203.05C747.219 1227.94 746.707 1248.92 746.025 1265.97C741.592 1377.47 715.165 1457.61 666.742 1506.37C618.661 1555.14 541.765 1579.52 436.055 1579.52ZM435.032 1481.31C370.583 1481.31 323.695 1465.11 294.369 1432.72C265.043 1399.98 249.869 1344.91 248.846 1267.5C247.482 1172.36 246.459 1078.93 245.777 987.198C245.436 895.469 245.436 802.376 245.777 707.918C246.459 613.12 247.482 514.23 248.846 411.247C249.869 334.522 264.702 279.621 293.346 246.544C321.99 213.126 368.707 196.417 433.498 196.417C494.537 196.417 539.208 213.296 567.511 247.055C595.814 280.814 611.671 336.227 615.081 413.293C615.763 426.251 616.104 442.96 616.104 463.421C616.104 483.881 615.933 508.262 615.592 536.565C615.251 564.868 614.399 597.434 613.035 634.262H551.655C553.018 597.093 553.871 564.527 554.212 536.565C554.553 508.262 554.724 484.392 554.724 464.955C554.724 445.177 554.383 429.491 553.701 417.897C551.314 360.95 541.254 317.984 523.522 288.998C506.131 260.013 476.123 245.521 433.498 245.521C390.19 245.521 358.989 258.479 339.893 284.395C320.797 309.97 310.908 352.595 310.226 412.27C308.862 507.41 307.839 600.844 307.157 692.573C306.816 784.302 306.816 877.225 307.157 971.342C307.839 1065.12 308.862 1163.5 310.226 1266.48C310.908 1326.15 320.967 1368.78 340.404 1394.35C360.182 1419.59 391.725 1432.2 435.032 1432.2C476.634 1432.2 507.324 1418.91 527.102 1392.31C547.221 1365.37 558.816 1321.55 561.885 1260.85C562.908 1240.05 563.419 1208.51 563.419 1166.22C563.76 1123.6 563.249 1082.51 561.885 1042.95H623.265C624.629 1082.17 625.14 1121.89 624.799 1162.13C624.799 1202.37 624.288 1234.76 623.265 1259.32C619.855 1338.43 603.487 1395.21 574.161 1429.65C545.175 1464.09 498.799 1481.31 435.032 1481.31Z" fill="black"/>
</g>
<defs>
<clipPath id="clip0_5_2">
<rect width="8592" height="1678" fill="white"/>
</clipPath>
</defs>
</svg>
