<svg width="1200" height="630" viewBox="0 0 16 16" fill="none" xmlns="http://www.w3.org/2000/svg">
<rect width="1200" height="630" fill="white"/>
<path d="M1114.52 426.775C1094.1 426.775 1079.5 422.477 1070.72 413.88C1061.94 405.239 1057.35 391.253 1056.94 371.923C1056.67 360.325 1056.46 349.773 1056.33 340.267C1056.23 330.761 1056.19 321.687 1056.19 313.045C1056.23 304.358 1056.3 295.557 1056.39 286.643C1056.53 277.683 1056.71 267.995 1056.94 257.579C1057.35 238.295 1061.94 224.377 1070.72 215.826C1079.54 207.275 1094.14 203 1114.52 203C1134.58 203 1148.97 207.298 1157.71 215.894C1166.44 224.445 1171.15 238.34 1171.83 257.579C1172.24 269.314 1172.53 280.025 1172.72 289.713C1172.94 299.355 1173.03 308.543 1172.99 317.275C1172.99 326.008 1172.87 334.786 1172.65 343.61C1172.47 352.433 1172.19 361.871 1171.83 371.923C1171.1 391.071 1166.44 405.011 1157.84 413.744C1149.25 422.431 1134.81 426.775 1114.52 426.775ZM1114.52 420.225C1131.94 420.225 1144.33 416.359 1151.7 408.627C1159.07 400.895 1163.05 388.569 1163.64 371.65C1164.01 361.371 1164.28 351.751 1164.46 342.791C1164.69 333.831 1164.8 325.007 1164.8 316.32C1164.8 307.587 1164.71 298.491 1164.53 289.031C1164.35 279.525 1164.05 269.132 1163.64 257.852C1163.05 240.978 1159.05 228.72 1151.63 221.079C1144.27 213.393 1131.89 209.55 1114.52 209.55C1096.78 209.55 1084.21 213.393 1076.79 221.079C1069.38 228.72 1065.49 240.955 1065.13 257.784C1064.85 269.337 1064.65 279.866 1064.51 289.372C1064.42 298.832 1064.38 307.883 1064.38 316.525C1064.42 325.167 1064.49 333.945 1064.58 342.859C1064.72 351.728 1064.9 361.348 1065.13 371.718C1065.49 388.638 1069.38 400.963 1076.79 408.695C1084.21 416.382 1096.78 420.225 1114.52 420.225ZM1114.52 413.676C1099.78 413.676 1089.32 410.356 1083.14 403.715C1076.95 397.029 1073.68 386.318 1073.31 371.582C1073.04 360.029 1072.84 349.522 1072.7 340.062C1072.61 330.556 1072.56 321.505 1072.56 312.909C1072.61 304.313 1072.68 295.58 1072.77 286.711C1072.9 277.842 1073.09 268.245 1073.31 257.92C1073.63 243.229 1076.91 232.586 1083.14 225.992C1089.41 219.397 1099.88 216.099 1114.52 216.099C1129.17 216.099 1139.51 219.487 1145.56 226.264C1151.61 232.996 1154.91 243.616 1155.45 258.125C1155.86 269.359 1156.16 279.707 1156.34 289.167C1156.52 298.582 1156.61 307.633 1156.61 316.32C1156.61 325.007 1156.5 333.808 1156.27 342.723C1156.09 351.637 1155.82 361.189 1155.45 371.377C1154.91 385.795 1151.63 396.461 1145.63 403.374C1139.67 410.242 1129.3 413.676 1114.52 413.676ZM1114.52 407.126C1126.12 407.126 1134.35 404.238 1139.22 398.462C1144.13 392.686 1146.81 383.566 1147.27 371.104C1147.63 360.87 1147.9 351.296 1148.09 342.382C1148.31 333.422 1148.43 324.621 1148.43 315.979C1148.43 307.292 1148.34 298.309 1148.15 289.031C1147.97 279.707 1147.68 269.518 1147.27 258.466C1146.81 246.504 1144.24 237.544 1139.56 231.586C1134.92 225.628 1126.57 222.649 1114.52 222.649C1102.51 222.649 1094.08 225.514 1089.21 231.245C1084.34 236.976 1081.77 245.936 1081.5 258.125C1081.23 269.632 1081.02 280.116 1080.89 289.576C1080.8 299.037 1080.75 308.065 1080.75 316.661C1080.8 325.257 1080.86 333.967 1080.95 342.791C1081.09 351.615 1081.27 361.143 1081.5 371.377C1081.77 384.112 1084.46 393.254 1089.55 398.803C1094.64 404.352 1102.97 407.126 1114.52 407.126ZM1114.52 400.577C1105.47 400.577 1099.12 398.212 1095.49 393.481C1091.85 388.706 1089.91 381.292 1089.69 371.24C1089.37 355.913 1089.14 342.313 1089 330.443C1088.91 318.526 1088.94 306.928 1089.07 295.648C1089.21 284.323 1089.41 271.861 1089.69 258.261C1089.91 248.255 1091.85 240.91 1095.49 236.225C1099.17 231.54 1105.51 229.198 1114.52 229.198C1123.62 229.198 1129.89 231.7 1133.35 236.703C1136.85 241.66 1138.76 249.006 1139.08 258.739C1139.45 269.018 1139.72 278.638 1139.9 287.598C1140.13 296.558 1140.24 305.359 1140.24 314.001C1140.24 322.597 1140.15 331.511 1139.97 340.744C1139.79 349.977 1139.49 360.029 1139.08 370.899C1138.72 380.906 1136.74 388.365 1133.15 393.277C1129.6 398.143 1123.39 400.577 1114.52 400.577ZM1114.52 394.027C1120.43 394.027 1124.55 392.094 1126.87 388.228C1129.23 384.362 1130.58 378.518 1130.89 370.695C1131.3 360.052 1131.6 350.182 1131.78 341.085C1131.96 331.989 1132.05 323.143 1132.05 314.546C1132.05 305.95 1131.96 297.149 1131.78 288.144C1131.6 279.138 1131.3 269.405 1130.89 258.944C1130.58 250.529 1129.14 244.571 1126.6 241.069C1124.09 237.521 1120.07 235.748 1114.52 235.748C1108.74 235.748 1104.56 237.499 1101.97 241.001C1099.42 244.503 1098.06 250.325 1097.87 258.466C1097.56 273.703 1097.33 287.257 1097.19 299.128C1097.1 310.999 1097.12 322.574 1097.26 333.854C1097.4 345.088 1097.6 357.482 1097.87 371.036C1098.06 378.722 1099.33 384.476 1101.69 388.296C1104.06 392.117 1108.33 394.027 1114.52 394.027Z" fill="black"/>
<path d="M1028.43 424.046V205.729H1036.62V424.046H1028.43ZM995.684 424.046V205.729H1003.87V424.046H995.684ZM1012.06 424.046V205.729H1020.24V424.046H1012.06Z" fill="black"/>
<path d="M861.634 424.046V205.729H917.032C929.676 205.729 940.296 207.412 948.892 210.777C957.489 214.143 964.015 219.897 968.473 228.038C972.975 236.134 975.386 247.346 975.704 261.673C975.977 274.271 976.159 286.256 976.25 297.627C976.341 308.997 976.341 320.391 976.25 331.807C976.159 343.178 975.977 355.185 975.704 367.829C975.386 382.338 972.953 393.686 968.404 401.873C963.856 410.014 957.284 415.745 948.688 419.065C940.091 422.386 929.539 424.046 917.032 424.046H861.634ZM869.821 416.95H917.032C924.946 416.95 931.995 416.177 938.181 414.631C944.367 413.084 949.597 410.469 953.873 406.785C958.148 403.101 961.446 398.075 963.765 391.708C966.085 385.34 967.336 377.335 967.518 367.693C967.79 355.003 967.972 342.996 968.063 331.67C968.154 320.345 968.154 309.02 968.063 297.695C967.972 286.37 967.79 274.408 967.518 261.809C967.245 248.892 965.084 238.886 961.036 231.79C956.988 224.695 951.235 219.76 943.776 216.986C936.362 214.211 927.447 212.824 917.032 212.824H869.821V416.95ZM878.008 409.855V219.919H917.032C925.764 219.919 933.224 221.102 939.409 223.467C945.64 225.832 950.461 230.062 953.873 236.157C957.284 242.251 959.103 250.87 959.331 262.014C959.558 271.52 959.717 280.616 959.808 289.303C959.899 297.945 959.945 306.473 959.945 314.887C959.945 323.256 959.899 331.761 959.808 340.403C959.717 349.045 959.558 358.073 959.331 367.488C959.103 378.404 957.329 386.955 954.009 393.14C950.734 399.28 946.004 403.601 939.819 406.103C933.633 408.604 926.037 409.855 917.032 409.855H878.008ZM886.194 402.76H917.032C927.72 402.76 936.043 400.418 942.002 395.733C948.005 391.003 951.053 381.701 951.144 367.829C951.235 355.14 951.28 343.132 951.28 331.807C951.326 320.436 951.326 309.066 951.28 297.695C951.28 286.324 951.235 274.317 951.144 261.673C951.053 248.301 948.119 239.181 942.343 234.315C936.612 229.448 928.175 227.015 917.032 227.015H886.194V402.76ZM894.381 395.665V234.11H917.032C922.626 234.11 927.334 234.929 931.154 236.566C935.02 238.204 937.931 241.023 939.887 245.026C941.888 248.983 942.911 254.532 942.957 261.673C943.048 274.271 943.093 286.256 943.093 297.627C943.139 308.997 943.139 320.391 943.093 331.807C943.093 343.178 943.048 355.185 942.957 367.829C942.911 378.745 940.637 386.113 936.134 389.934C931.677 393.754 925.31 395.665 917.032 395.665H894.381ZM902.568 388.569H917.032C920.761 388.569 923.922 387.978 926.515 386.795C929.153 385.613 931.177 383.521 932.587 380.519C933.997 377.517 934.725 373.287 934.77 367.829C934.861 355.276 934.906 343.314 934.906 331.943C934.952 320.573 934.952 309.179 934.906 297.763C934.906 286.347 934.861 274.317 934.77 261.673C934.725 254.077 933.269 248.778 930.404 245.776C927.584 242.729 923.126 241.205 917.032 241.205H902.568V388.569Z" fill="black"/>
<path d="M784.389 426.775C764.058 426.775 749.436 422.522 740.521 414.017C731.652 405.512 727.081 391.48 726.808 371.923C726.626 358.187 726.467 344.383 726.33 330.511C726.239 316.638 726.194 302.743 726.194 288.826C726.194 274.908 726.239 261.013 726.33 247.141C726.467 233.223 726.626 219.419 726.808 205.729H734.995C734.813 219.419 734.654 233.223 734.517 247.141C734.426 261.013 734.381 274.908 734.381 288.826C734.381 302.743 734.426 316.638 734.517 330.511C734.654 344.383 734.813 358.187 734.995 371.923C735.268 389.161 739.225 401.532 746.866 409.037C754.552 416.496 767.06 420.225 784.389 420.225C801.627 420.225 814.044 416.496 821.639 409.037C829.28 401.532 833.237 389.161 833.51 371.923C833.738 358.187 833.897 344.383 833.988 330.511C834.079 316.638 834.124 302.743 834.124 288.826C834.124 274.908 834.079 261.013 833.988 247.141C833.897 233.223 833.738 219.419 833.51 205.729H841.697C841.97 224.013 842.152 242.433 842.243 260.99C842.334 279.547 842.334 298.104 842.243 316.661C842.152 335.218 841.97 353.639 841.697 371.923C841.424 391.48 836.853 405.512 827.984 414.017C819.16 422.522 804.629 426.775 784.389 426.775ZM784.389 413.676C769.744 413.676 759.26 410.424 752.938 403.92C746.661 397.37 743.409 386.727 743.182 371.991C743 357.163 742.841 343.064 742.704 329.692C742.613 316.275 742.568 303.039 742.568 289.986C742.568 276.887 742.613 263.469 742.704 249.733C742.795 235.952 742.954 221.284 743.182 205.729H751.369C751.141 221.238 750.959 236.043 750.823 250.143C750.732 264.242 750.686 277.978 750.686 291.35C750.732 304.676 750.8 317.957 750.891 331.193C751.027 344.428 751.187 357.914 751.369 371.65C751.55 384.248 754.166 393.322 759.214 398.871C764.263 404.375 772.654 407.126 784.389 407.126C796.078 407.126 804.401 404.352 809.359 398.803C814.362 393.254 816.955 384.203 817.136 371.65C817.364 358.005 817.523 344.269 817.614 330.442C817.705 316.57 817.751 302.698 817.751 288.826C817.751 274.908 817.705 261.013 817.614 247.141C817.523 233.223 817.364 219.419 817.136 205.729H825.323C825.551 221.511 825.71 236.475 825.801 250.62C825.892 264.765 825.937 278.478 825.937 291.759C825.937 305.04 825.869 318.276 825.733 331.466C825.642 344.61 825.505 358.119 825.323 371.991C825.141 386.636 821.935 397.256 815.704 403.851C809.473 410.401 799.034 413.676 784.389 413.676ZM784.389 400.577C775.747 400.577 769.493 398.325 765.627 393.823C761.761 389.274 759.737 381.792 759.555 371.377C759.283 353.275 759.101 334.968 759.01 316.456C758.919 297.945 758.919 279.411 759.01 260.854C759.101 242.297 759.283 223.922 759.555 205.729H767.742C767.56 218.691 767.401 231.95 767.265 245.503C767.174 259.057 767.128 272.816 767.128 286.779C767.128 300.697 767.174 314.728 767.265 328.873C767.356 343.018 767.538 357.186 767.811 371.377C767.947 379.655 769.334 385.499 771.972 388.91C774.656 392.322 778.795 394.027 784.389 394.027C789.892 394.027 793.94 392.322 796.533 388.91C799.171 385.499 800.558 379.655 800.695 371.377C801.013 353.275 801.218 334.945 801.309 316.388C801.4 297.831 801.4 279.274 801.309 260.717C801.218 242.161 801.036 223.831 800.763 205.729H808.95C809.177 219.283 809.336 232.996 809.427 246.868C809.518 260.695 809.564 274.567 809.564 288.485C809.564 302.357 809.518 316.229 809.427 330.101C809.336 343.974 809.177 357.732 808.95 371.377C808.768 381.792 806.766 389.274 802.946 393.823C799.125 398.325 792.94 400.577 784.389 400.577Z" fill="black"/>
<path d="M656.738 424.046V227.015H605.161V219.919H716.23V227.015H664.925V424.046H656.738ZM640.364 424.046V241.205H605.161V234.11H648.551V424.046H640.364ZM673.112 424.046V234.11H716.23V241.205H681.299V424.046H673.112ZM605.161 212.824V205.729H716.23V212.824H605.161Z" fill="black"/>
<path d="M539.567 426.775C520.737 426.775 506.751 422.659 497.609 414.426C488.513 406.194 483.578 392.026 482.805 371.923C482.714 369.603 482.668 366.419 482.668 362.371C482.668 358.323 482.759 354.366 482.941 350.5C483.123 346.634 483.442 343.86 483.896 342.177H492.015C491.697 343.769 491.424 346.157 491.196 349.341C490.969 352.524 490.833 356.095 490.787 360.052C490.787 363.963 490.855 367.829 490.992 371.65C491.674 389.115 495.813 401.577 503.408 409.037C511.004 416.496 523.057 420.225 539.567 420.225C556.441 420.225 568.676 416.473 576.272 408.968C583.867 401.418 588.006 388.956 588.689 371.582C588.779 369.307 588.848 367.124 588.893 365.032C588.984 362.94 589.03 360.87 589.03 358.824C589.075 356.732 589.052 354.571 588.961 352.342C588.461 339.789 585.164 329.556 579.069 321.642C573.02 313.728 564.674 308.315 554.031 305.404L528.72 298.445C525.809 297.627 523.307 296.285 521.215 294.42C519.123 292.51 517.508 290.099 516.371 287.188C515.234 284.278 514.597 280.889 514.461 277.023C514.324 273.248 514.256 270.11 514.256 267.608C514.256 265.061 514.324 261.991 514.461 258.398C514.87 248.21 517.008 240.796 520.874 236.157C524.785 231.518 531.016 229.198 539.567 229.198C547.481 229.198 553.303 231.449 557.033 235.952C560.762 240.455 562.854 248.005 563.309 258.603C563.446 262.059 563.446 266.585 563.309 272.179C563.218 277.774 563.059 282.913 562.832 287.598H554.645C554.872 283.095 555.031 277.933 555.122 272.111C555.259 266.244 555.281 261.968 555.191 259.285C554.827 250.052 553.303 243.821 550.62 240.591C547.982 237.362 544.297 235.748 539.567 235.748C533.745 235.748 529.538 237.635 526.946 241.41C524.399 245.14 522.943 251.098 522.579 259.285C522.443 262.469 522.397 265.584 522.443 268.632C522.534 271.633 522.602 274.34 522.648 276.75C522.739 279.388 523.102 281.685 523.739 283.641C524.421 285.551 525.354 287.12 526.536 288.348C527.719 289.531 529.129 290.35 530.766 290.804L555.941 297.422C568.585 300.742 578.455 307.042 585.55 316.32C592.691 325.553 596.557 337.447 597.148 352.001C597.239 354.093 597.262 356.277 597.217 358.551C597.217 360.825 597.171 363.099 597.08 365.373C597.035 367.647 596.966 369.831 596.875 371.923C596.057 391.48 591.213 405.512 582.344 414.017C573.52 422.522 559.261 426.775 539.567 426.775ZM539.567 413.676C526.013 413.676 516.053 410.469 509.685 404.056C503.317 397.598 499.815 386.682 499.179 371.309C499.088 368.307 499.042 364.85 499.042 360.939C499.088 357.027 499.179 353.343 499.315 349.886C499.497 346.384 499.747 343.814 500.065 342.177H508.184C507.911 344.133 507.684 346.657 507.502 349.75C507.32 352.843 507.206 356.254 507.161 359.984C507.161 363.713 507.229 367.511 507.365 371.377C507.866 384.112 510.617 393.254 515.621 398.803C520.669 404.352 528.651 407.126 539.567 407.126C550.665 407.126 558.761 404.352 563.855 398.803C568.995 393.209 571.814 384.067 572.315 371.377C572.451 368.557 572.542 366.101 572.588 364.009C572.633 361.917 572.656 359.984 572.656 358.21C572.701 356.436 572.679 354.708 572.588 353.025C572.36 347.248 571.337 342.223 569.518 337.947C567.698 333.626 565.151 330.079 561.876 327.304C558.647 324.484 554.758 322.483 550.21 321.3L524.558 314.615C519.6 313.296 515.166 311.112 511.254 308.065C507.343 304.972 504.227 300.901 501.908 295.853C499.588 290.759 498.314 284.641 498.087 277.501C497.996 274.681 497.928 272.27 497.882 270.269C497.882 268.268 497.882 266.335 497.882 264.47C497.928 262.56 497.996 260.422 498.087 258.057C498.724 242.866 502.294 232.086 508.798 225.719C515.348 219.306 525.604 216.099 539.567 216.099C553.303 216.099 563.264 219.374 569.449 225.923C575.68 232.473 579.092 243.229 579.683 258.193C579.819 261.65 579.819 266.312 579.683 272.179C579.592 278.001 579.41 283.141 579.137 287.598H571.018C571.246 283.55 571.428 278.66 571.564 272.93C571.701 267.153 571.678 262.218 571.496 258.125C570.996 245.481 568.244 236.407 563.241 230.904C558.283 225.4 550.392 222.649 539.567 222.649C529.061 222.649 521.01 225.196 515.416 230.29C509.867 235.384 506.82 244.662 506.274 258.125C506.092 262.264 506.024 265.584 506.069 268.086C506.115 270.587 506.183 273.657 506.274 277.296C506.456 282.663 507.365 287.348 509.003 291.35C510.686 295.307 513.005 298.582 515.962 301.174C518.964 303.721 522.511 305.541 526.605 306.632L552.12 313.318C560.899 315.592 567.766 320.095 572.724 326.827C577.682 333.513 580.365 342.132 580.775 352.684C580.865 354.548 580.911 356.345 580.911 358.073C580.911 359.756 580.865 361.621 580.775 363.668C580.729 365.714 580.638 368.239 580.502 371.24C579.91 386.068 576.499 396.847 570.268 403.579C564.082 410.31 553.849 413.676 539.567 413.676ZM539.567 400.577C531.608 400.577 525.718 398.303 521.897 393.754C518.077 389.206 515.962 381.52 515.552 370.695C515.461 367.511 515.416 364.145 515.416 360.598C515.416 357.05 515.484 353.661 515.621 350.432C515.802 347.203 516.007 344.451 516.235 342.177H524.353C524.126 344.997 523.921 347.908 523.739 350.91C523.603 353.912 523.535 357.05 523.535 360.325C523.535 363.554 523.603 366.942 523.739 370.49C524.058 377.995 525.286 383.794 527.423 387.887C529.606 391.981 533.654 394.027 539.567 394.027C545.071 394.027 549.096 392.185 551.643 388.501C554.235 384.772 555.691 378.654 556.009 370.149C556.146 367.283 556.214 364.827 556.214 362.781C556.259 360.734 556.282 358.983 556.282 357.527C556.282 356.027 556.259 354.708 556.214 353.57C556.123 350.523 555.668 347.885 554.849 345.656C554.031 343.382 552.894 341.54 551.438 340.13C550.028 338.675 548.323 337.697 546.321 337.197L520.464 330.443C512.46 328.35 505.614 324.939 499.929 320.209C494.244 315.433 489.855 309.498 486.762 302.402C483.669 295.307 481.986 287.188 481.713 278.046C481.577 273.635 481.509 269.951 481.509 266.994C481.509 264.038 481.577 260.899 481.713 257.579C482.532 238.113 487.421 224.149 496.381 215.69C505.341 207.23 519.737 203 539.567 203C558.488 203 572.428 207.139 581.389 215.417C590.349 223.649 595.238 237.703 596.057 257.579C596.193 261.036 596.193 265.857 596.057 272.043C595.966 278.228 595.784 283.413 595.511 287.598H587.324C587.642 282.731 587.847 277.432 587.938 271.702C588.029 265.925 588.006 261.309 587.87 257.852C587.188 240.523 583.071 228.152 575.521 220.738C568.017 213.279 556.032 209.55 539.567 209.55C522.693 209.55 510.367 213.256 502.59 220.67C494.858 228.038 490.628 240.41 489.9 257.784C489.718 262.014 489.65 265.539 489.695 268.359C489.741 271.179 489.809 274.317 489.9 277.774C490.173 285.597 491.606 292.555 494.198 298.65C496.791 304.699 500.475 309.748 505.251 313.796C510.026 317.844 515.78 320.755 522.511 322.529L548.3 329.283C551.529 330.101 554.304 331.557 556.623 333.649C558.943 335.696 560.762 338.356 562.081 341.631C563.446 344.906 564.219 348.795 564.401 353.298C564.492 355.071 564.514 356.754 564.469 358.346C564.469 359.938 564.446 361.689 564.401 363.599C564.355 365.464 564.264 367.784 564.128 370.558C563.673 381.247 561.558 388.933 557.783 393.618C554.053 398.257 547.982 400.577 539.567 400.577Z" fill="black"/>
<path d="M417.378 424.046V416.951H463.77V424.046H417.378ZM417.378 395.665V388.569H463.77V395.665H417.378ZM417.378 409.855V402.76H463.77V409.855H417.378Z" fill="black"/>
<path d="M292.464 424.046L311.839 348.454L320.572 310.521L309.861 266.585L293.555 205.729H302.288L317.434 263.446L327.395 307.451H352.365L361.779 263.446L376.925 205.729H385.658L369.352 266.585L358.914 310.521L367.374 348.454L387.022 424.046H378.29L360.074 352.206L352.637 314.069H327.122L319.139 352.206L301.196 424.046H292.464ZM310.202 424.046L324.802 357.254L332.034 320.755H347.452L354.411 357.254L369.011 424.046H360.551L346.702 360.802L341.449 327.304H337.765L332.511 360.802L318.662 424.046H310.202ZM275.817 424.046L304.198 310.521L276.636 205.729H285.3L312.658 310.521L284.482 424.046H275.817ZM394.732 424.046L366.555 310.521L393.913 205.729H402.577L375.015 310.521L403.396 424.046H394.732ZM331.761 300.833L324.734 260.717L311.021 205.729H319.481L331.624 258.057L337.628 294.011H341.585L347.589 258.057L359.733 205.729H368.192L354.479 260.717L347.725 300.833H331.761Z" fill="black"/>
<path d="M162.071 424.046V205.729H214.74C227.066 205.729 237.482 207.298 245.987 210.436C254.538 213.575 261.11 219.01 265.704 226.742C270.343 234.428 272.913 245.162 273.413 258.944C273.64 266.448 273.754 273.521 273.754 280.161C273.8 286.802 273.686 293.92 273.413 301.515C272.913 315.251 270.343 325.985 265.704 333.717C261.11 341.449 254.538 346.884 245.987 350.023C237.482 353.161 227.066 354.73 214.74 354.73H203.006V424.046H194.819V347.635H214.74C225.292 347.635 234.23 346.27 241.552 343.541C248.92 340.812 254.606 336.105 258.608 329.419C262.611 322.688 264.817 313.318 265.226 301.311C265.408 296.262 265.522 291.486 265.567 286.984C265.658 282.481 265.658 277.978 265.567 273.475C265.522 268.927 265.408 264.151 265.226 259.148C264.817 247.141 262.611 237.794 258.608 231.108C254.606 224.377 248.92 219.647 241.552 216.918C234.23 214.189 225.292 212.824 214.74 212.824H170.258V424.046H162.071ZM178.445 424.046V219.919H214.74C223.382 219.919 230.773 221.057 236.913 223.331C243.099 225.559 247.897 229.539 251.308 235.27C254.765 240.955 256.675 248.96 257.039 259.285C257.312 266.835 257.448 273.839 257.448 280.298C257.448 286.711 257.312 293.67 257.039 301.174C256.675 311.499 254.765 319.527 251.308 325.257C247.897 330.943 243.099 334.922 236.913 337.197C230.773 339.425 223.382 340.54 214.74 340.54H186.632V424.046H178.445ZM186.632 333.444H214.74C225.474 333.444 233.729 331.147 239.506 326.554C245.282 321.914 248.397 313.386 248.852 300.97C249.034 295.876 249.148 291.145 249.193 286.779C249.284 282.413 249.284 278.046 249.193 273.68C249.148 269.268 249.034 264.538 248.852 259.489C248.443 247.937 245.578 239.636 240.256 234.588C234.935 229.539 226.429 227.015 214.74 227.015H186.632V333.444ZM194.819 326.349V234.11H214.74C223.109 234.11 229.431 235.998 233.707 239.773C238.027 243.502 240.347 250.12 240.665 259.626C240.847 264.674 240.961 269.405 241.007 273.816C241.097 278.183 241.097 282.549 241.007 286.915C240.961 291.236 240.847 295.876 240.665 300.833C240.347 310.339 238.027 316.98 233.707 320.755C229.431 324.484 223.109 326.349 214.74 326.349H194.819ZM203.006 319.254H214.74C219.88 319.254 224.064 318.003 227.293 315.501C230.523 313 232.274 307.769 232.547 299.81C232.774 294.261 232.888 287.78 232.888 280.366C232.888 272.907 232.774 266.335 232.547 260.649C232.274 252.69 230.523 247.459 227.293 244.958C224.064 242.456 219.88 241.205 214.74 241.205H203.006V319.254Z" fill="black"/>
<path d="M85.161 426.775C64.7847 426.775 50.1393 422.522 41.2247 414.017C32.3101 405.512 27.7164 391.48 27.4435 371.923C27.216 357.232 27.0796 343.723 27.0341 331.398C26.9886 319.026 26.9886 306.928 27.0341 295.102C27.1251 283.231 27.2615 270.724 27.4435 257.579C27.7164 238.113 32.2874 224.149 41.1565 215.69C50.0256 207.23 64.5801 203 84.8199 203C104.423 203 118.659 207.207 127.528 215.621C136.397 223.99 141.15 237.976 141.787 257.579C141.878 259.535 141.923 261.695 141.923 264.061C141.923 266.38 141.901 268.836 141.855 271.429C141.855 274.021 141.81 276.682 141.719 279.411C141.673 282.14 141.605 284.869 141.514 287.598H133.327C133.464 283.959 133.555 280.343 133.6 276.75C133.691 273.157 133.737 269.746 133.737 266.517C133.737 263.242 133.691 260.331 133.6 257.784C133.009 240.637 128.961 228.311 121.456 220.806C113.952 213.302 101.739 209.55 84.8199 209.55C67.4455 209.55 54.9605 213.279 47.3649 220.738C39.7693 228.197 35.8578 240.523 35.6303 257.716C35.4484 270.724 35.312 283.618 35.221 296.399C35.1755 309.179 35.1755 321.846 35.221 334.4C35.312 346.953 35.4484 359.415 35.6303 371.786C35.8578 389.07 39.8147 401.464 47.5013 408.968C55.1879 416.473 67.7411 420.225 85.161 420.225C102.172 420.225 114.497 416.473 122.138 408.968C129.825 401.464 134.009 389.047 134.692 371.718C134.828 367.988 134.896 363.508 134.896 358.278C134.942 353.047 134.874 347.658 134.692 342.109H142.879C143.06 347.248 143.129 352.661 143.083 358.346C143.083 363.986 143.015 368.512 142.879 371.923C142.151 391.48 137.307 405.512 128.347 414.017C119.432 422.522 105.037 426.775 85.161 426.775ZM85.161 413.676C70.652 413.676 60.191 410.424 53.7779 403.92C47.3649 397.416 44.0446 386.682 43.8172 371.718C43.6353 358.892 43.4988 346.384 43.4079 334.195C43.3624 322.005 43.3624 309.68 43.4079 297.217C43.4988 284.71 43.6353 271.565 43.8172 257.784C44.0446 242.911 47.3194 232.245 53.6415 225.787C60.0091 219.328 70.4019 216.099 84.8199 216.099C98.7376 216.099 108.835 219.351 115.111 225.855C121.433 232.314 124.867 242.957 125.413 257.784C125.504 259.831 125.55 262.105 125.55 264.606C125.55 267.062 125.527 269.632 125.481 272.316C125.436 274.954 125.39 277.592 125.345 280.23C125.299 282.822 125.231 285.278 125.14 287.598H116.953C117.135 282.64 117.249 278.342 117.295 274.703C117.34 271.019 117.363 267.836 117.363 265.152C117.363 262.469 117.317 260.172 117.226 258.261C116.771 245.617 114.02 236.521 108.971 230.972C103.968 225.423 95.9176 222.649 84.8199 222.649C73.2673 222.649 64.9439 225.377 59.8499 230.835C54.8013 236.248 52.186 245.231 52.0041 257.784C51.8222 270.383 51.6857 282.868 51.5948 295.239C51.5493 307.565 51.5493 320.05 51.5948 332.694C51.6857 345.338 51.8222 358.483 52.0041 372.127C52.186 384.772 54.8695 393.777 60.0545 399.144C65.2396 404.466 73.5629 407.126 85.0245 407.126C96.8046 407.126 105.151 404.238 110.063 398.462C115.02 392.686 117.772 383.612 118.318 371.24C118.409 369.012 118.477 366.351 118.523 363.258C118.568 360.12 118.568 356.754 118.523 353.161C118.523 349.522 118.454 345.838 118.318 342.109H126.505C126.641 345.565 126.709 349.159 126.709 352.888C126.755 356.618 126.755 360.143 126.709 363.463C126.664 366.783 126.596 369.58 126.505 371.855C125.913 386.727 122.389 397.416 115.93 403.92C109.517 410.424 99.2606 413.676 85.161 413.676ZM85.0245 400.577C76.4283 400.577 70.1744 398.416 66.2629 394.096C62.3514 389.729 60.3274 382.384 60.191 372.059C60.0091 359.369 59.8726 346.907 59.7816 334.672C59.7362 322.438 59.7362 310.021 59.7816 297.422C59.8726 284.778 60.0091 271.588 60.191 257.852C60.3274 247.619 62.3059 240.296 66.1265 235.884C69.947 231.427 76.1782 229.198 84.8199 229.198C92.9613 229.198 98.9195 231.449 102.695 235.952C106.47 240.455 108.585 247.846 109.039 258.125C109.13 259.853 109.176 262.082 109.176 264.811C109.176 267.54 109.153 270.792 109.108 274.567C109.062 278.342 108.948 282.686 108.767 287.598H100.58C100.762 282.64 100.875 278.297 100.921 274.567C100.966 270.792 100.989 267.608 100.989 265.016C100.989 262.378 100.943 260.285 100.853 258.739C100.534 251.143 99.1924 245.413 96.8273 241.547C94.5077 237.681 90.5052 235.748 84.8199 235.748C79.0436 235.748 74.8819 237.476 72.3349 240.933C69.7878 244.344 68.4688 250.029 68.3779 257.989C68.1959 270.678 68.0595 283.14 67.9685 295.375C67.923 307.61 67.923 320.004 67.9685 332.557C68.0595 345.065 68.1959 358.187 68.3779 371.923C68.4688 379.882 69.8106 385.568 72.4031 388.979C75.0411 392.344 79.2482 394.027 85.0245 394.027C90.5734 394.027 94.6669 392.253 97.3049 388.706C99.9883 385.113 101.535 379.268 101.944 371.172C102.081 368.398 102.149 364.191 102.149 358.551C102.194 352.865 102.126 347.385 101.944 342.109H110.131C110.313 347.339 110.381 352.638 110.336 358.005C110.336 363.372 110.267 367.693 110.131 370.968C109.676 381.52 107.493 389.092 103.581 393.686C99.7155 398.28 93.5298 400.577 85.0245 400.577Z" fill="black"/>
</svg>
