<svg width="200" height="125" viewBox="0 0 200 125" fill="none" xmlns="http://www.w3.org/2000/svg">
<path d="M118.228 101.448C118.396 101.279 118.6 101.195 118.84 101.195C119.086 101.195 119.291 101.279 119.453 101.448C119.621 101.616 119.705 101.829 119.705 102.084C119.705 102.348 119.621 102.571 119.453 102.745C119.291 102.913 119.086 102.997 118.84 102.997C118.6 102.997 118.396 102.913 118.228 102.745C118.065 102.571 117.987 102.348 117.987 102.084C117.987 101.829 118.065 101.616 118.228 101.448Z" fill="black"/>
<path d="M125.365 95.5618C126.365 95.5618 127.209 95.808 127.9 96.2945L127.323 97.4476C126.632 97.0242 125.942 96.811 125.245 96.811C124.53 96.811 124.176 97.0512 124.176 97.5317C124.176 97.7719 124.308 97.9701 124.572 98.1202C124.837 98.2734 125.155 98.4025 125.533 98.5046C125.909 98.6097 126.284 98.7328 126.662 98.877C127.038 99.0151 127.359 99.2433 127.623 99.5616C127.888 99.8829 128.02 100.288 128.02 100.775C128.02 101.48 127.749 102.018 127.215 102.384C126.686 102.754 126.029 102.937 125.245 102.937C124.698 102.937 124.164 102.85 123.635 102.673C123.113 102.489 122.678 102.24 122.326 101.928L122.879 100.799C123.191 101.081 123.569 101.3 124.02 101.459C124.467 101.622 124.897 101.7 125.305 101.7C125.665 101.7 125.954 101.64 126.17 101.52C126.386 101.393 126.494 101.195 126.494 100.931C126.494 100.661 126.362 100.444 126.098 100.282C125.834 100.114 125.512 99.982 125.137 99.8859C124.768 99.7838 124.395 99.6637 124.02 99.5256C123.65 99.3905 123.335 99.1652 123.071 98.8529C122.813 98.5346 122.687 98.1322 122.687 97.6518C122.687 96.9641 122.942 96.4446 123.455 96.0903C123.975 95.7389 124.611 95.5618 125.365 95.5618Z" fill="black"/>
<path d="M135.009 101.219L135.405 102.408C134.805 102.769 134.207 102.949 133.615 102.949C133.03 102.949 132.546 102.775 132.162 102.421C131.778 102.06 131.585 101.532 131.585 100.835V97.0633H130.564V95.8982H131.585V93.9043H133.147V95.8982H135.285V97.0633H133.147V100.547C133.147 100.907 133.207 101.165 133.327 101.315C133.453 101.46 133.651 101.532 133.916 101.532C134.21 101.532 134.576 101.43 135.009 101.219Z" fill="black"/>
<path d="M145.139 95.6221V102.877H143.565V101.46C143.091 102.421 142.232 102.913 140.983 102.937C140.148 102.937 139.497 102.691 139.025 102.192C138.551 101.688 138.316 101.003 138.316 100.138V95.6221H139.89V99.706C139.89 100.253 140.037 100.679 140.334 100.991C140.638 101.304 141.049 101.46 141.572 101.46C142.178 101.454 142.665 101.237 143.025 100.811C143.385 100.388 143.565 99.8501 143.565 99.2015V95.6221H145.139Z" fill="black"/>
<path d="M156.063 92.7632V102.877H154.489V101.64C153.952 102.514 153.102 102.949 151.943 102.949C150.91 102.949 150.072 102.607 149.433 101.916C148.79 101.228 148.472 100.33 148.472 99.2254C148.472 98.1384 148.787 97.2555 149.421 96.5829C150.06 95.9042 150.892 95.5619 151.919 95.5619C153.078 95.5619 153.937 96.0033 154.489 96.8832V92.7632H156.063ZM150.67 100.979C151.084 101.421 151.619 101.64 152.267 101.64C152.922 101.64 153.456 101.421 153.865 100.979C154.279 100.541 154.489 99.9701 154.489 99.2735C154.489 98.5768 154.279 98.0092 153.865 97.5678C153.456 97.1204 152.922 96.8952 152.267 96.8952C151.619 96.8952 151.084 97.1204 150.67 97.5678C150.252 98.0092 150.039 98.5768 150.033 99.2735C150.039 99.9701 150.252 100.541 150.67 100.979Z" fill="black"/>
<path d="M160.257 92.8592C160.431 92.6851 160.654 92.595 160.918 92.595C161.182 92.595 161.398 92.6851 161.566 92.8592C161.741 93.0364 161.831 93.2676 161.831 93.5559C161.831 93.8292 161.741 94.0544 161.566 94.2285C161.398 94.4057 161.182 94.4928 160.918 94.4928C160.654 94.4928 160.431 94.4057 160.257 94.2285C160.089 94.0544 160.005 93.8292 160.005 93.5559C160.005 93.2676 160.089 93.0364 160.257 92.8592ZM161.699 102.877H160.137V95.6219H161.699V102.877Z" fill="black"/>
<path d="M168.821 95.574C169.941 95.574 170.851 95.9163 171.547 96.595C172.25 97.2676 172.604 98.1535 172.604 99.2495C172.604 100.34 172.25 101.228 171.547 101.916C170.851 102.598 169.941 102.937 168.821 102.937C167.698 102.937 166.785 102.598 166.082 101.916C165.385 101.228 165.037 100.34 165.037 99.2495C165.037 98.1535 165.385 97.2676 166.082 96.595C166.785 95.9163 167.698 95.574 168.821 95.574ZM168.821 96.9193C168.172 96.9193 167.638 97.1415 167.223 97.5799C166.806 98.0123 166.599 98.5739 166.599 99.2615C166.599 99.9672 166.806 100.541 167.223 100.979C167.638 101.412 168.172 101.628 168.821 101.628C169.475 101.628 170.01 101.412 170.418 100.979C170.827 100.541 171.031 99.9672 171.031 99.2615C171.031 98.5739 170.821 98.0123 170.406 97.5799C169.998 97.1415 169.469 96.9193 168.821 96.9193Z" fill="black"/>
<path d="M59.8773 74.4277C59.8412 74.2985 59.5079 71.9413 59.3007 68.1546C59.0935 64.368 59.0094 59.1489 59.4689 53.2963C59.7602 49.5877 60.2346 46.1134 60.7781 42.9693C61.3217 39.8223 61.9372 37.0086 62.5138 34.6153C62.5408 34.5042 62.5739 34.3931 62.6099 34.2849C62.6459 34.1768 62.688 34.0717 62.733 33.9696C62.7811 33.8675 62.8321 33.7654 62.8862 33.6694C62.9402 33.5703 63.0003 33.4742 63.0633 33.3811C63.1264 33.288 63.1925 33.1979 63.2615 33.1078C63.3306 33.0207 63.4057 32.9336 63.4807 32.8496C63.5588 32.7655 63.6369 32.6844 63.721 32.6063C63.802 32.5283 63.8861 32.4532 63.9732 32.3781C64.0633 32.306 64.1534 32.234 64.2435 32.1649C64.3366 32.0958 64.4297 32.0298 64.5257 31.9667C64.6218 31.9036 64.7179 31.8406 64.817 31.7835C64.9161 31.7235 65.0182 31.6694 65.1173 31.6154C65.2194 31.5613 65.3215 31.5103 65.4266 31.4622C65.5287 31.4142 65.6338 31.3691 65.7359 31.3241C65.841 31.282 65.9461 31.24 66.0512 31.204C66.1563 31.1649 66.2584 31.1289 66.3635 31.0989C66.4686 31.0658 66.5737 31.0358 66.6758 31.0088C66.7779 30.9788 66.883 30.9547 66.9821 30.9337C67.0842 30.9127 67.1863 30.8917 67.2854 30.8767C67.3845 30.8586 67.4836 30.8466 67.5797 30.8346C67.6758 30.8226 67.7719 30.8136 67.862 30.8076C67.9551 30.8016 68.0481 30.8016 68.1352 30.7986C68.2223 30.7986 68.3094 30.8016 68.3935 30.8076C68.4746 30.8136 68.5556 30.8196 68.6337 30.8316C68.7118 30.8436 68.7869 30.8556 68.8559 30.8737C68.928 30.8887 68.9971 30.9097 69.0601 30.9307C69.1232 30.9517 69.1832 30.9788 69.2403 31.0058C69.2973 31.0328 69.3484 31.0658 69.3964 31.0989C69.4445 31.1319 69.4865 31.1679 69.5256 31.207C69.5646 31.246 69.5976 31.2881 69.6277 31.3331C69.6547 31.3781 69.6787 31.4292 69.6967 31.4772C69.7147 31.5313 69.7298 31.5823 69.7358 31.6394C69.8048 32.2099 69.0901 34.5012 68.2944 38.54C67.4986 42.5789 66.6248 48.3685 66.3815 55.9328C66.2914 58.7165 66.2945 61.9987 66.5197 65.494C66.7479 68.9864 67.1983 72.695 68.0091 76.3255C68.0301 76.4216 68.0421 76.5117 68.0481 76.5987C68.0541 76.6858 68.0511 76.7669 68.0421 76.848C68.0301 76.9261 68.0151 77.0041 67.9911 77.0762C67.9671 77.1483 67.937 77.2173 67.901 77.2804C67.865 77.3465 67.8229 77.4095 67.7749 77.4666C67.7238 77.5236 67.6698 77.5777 67.6127 77.6287C67.5527 77.6798 67.4866 77.7278 67.4175 77.7699C67.3455 77.8149 67.2704 77.854 67.1923 77.89C67.1112 77.926 67.0272 77.9591 66.9401 77.9891C66.853 78.0191 66.7599 78.0461 66.6638 78.0672C66.5677 78.0882 66.4686 78.1062 66.3665 78.1212C66.2644 78.1362 66.1593 78.1482 66.0512 78.1573C65.9431 78.1663 65.832 78.1693 65.7179 78.1693C65.6038 78.1723 65.4897 78.1693 65.3726 78.1633C65.2554 78.1573 65.1353 78.1452 65.0152 78.1332C64.8951 78.1212 64.772 78.1032 64.6489 78.0822C64.5257 78.0612 64.4026 78.0371 64.2795 78.0101C64.1534 77.9831 64.0303 77.9531 63.9071 77.917C63.781 77.884 63.6549 77.845 63.5318 77.8059C63.4087 77.7639 63.2825 77.7188 63.1594 77.6708C63.0393 77.6227 62.9162 77.5687 62.7961 77.5146C62.673 77.4576 62.5528 77.4005 62.4357 77.3375C62.3186 77.2744 62.2015 77.2113 62.0904 77.1393C61.9763 77.0702 61.8652 76.9981 61.7541 76.9231C61.646 76.845 61.5409 76.7669 61.4358 76.6828C61.3337 76.5988 61.2346 76.5117 61.1355 76.4246C61.0394 76.3315 60.9463 76.2384 60.8592 76.1423C60.7691 76.0462 60.685 75.9441 60.604 75.842C60.5229 75.7369 60.4478 75.6288 60.3757 75.5177C60.3037 75.4096 60.2376 75.2925 60.1776 75.1754C60.1145 75.0583 60.0604 74.9381 60.0094 74.812C59.9613 74.6889 59.9163 74.5598 59.8773 74.4277Z" fill="black"/>
<path d="M50.7585 31.9302C50.272 33.3206 48.8126 34.1554 46.0139 37.9931C43.2152 41.8308 39.0712 48.6744 33.2126 62.0823C29.2998 71.0339 27.0416 78.2319 25.7384 83.3008C24.4321 88.3696 24.0778 91.3095 23.9727 91.7419C23.9397 91.874 23.9006 91.9941 23.8586 92.1052C23.8135 92.2164 23.7655 92.3185 23.7084 92.4085C23.6544 92.4986 23.5913 92.5797 23.5253 92.6518C23.4592 92.7238 23.3901 92.7869 23.3151 92.841C23.24 92.895 23.1589 92.94 23.0748 92.9761C22.9907 93.0151 22.9037 93.0421 22.8136 93.0632C22.7205 93.0812 22.6244 93.0932 22.5253 93.0992C22.4262 93.1052 22.3271 93.1022 22.222 93.0902C22.1169 93.0812 22.0088 93.0632 21.9007 93.0391C21.7896 93.0151 21.6785 92.9851 21.5644 92.9461C21.4503 92.91 21.3361 92.865 21.219 92.8169C21.1019 92.7689 20.9818 92.7118 20.8647 92.6518C20.7446 92.5917 20.6245 92.5226 20.5013 92.4536C20.3812 92.3815 20.2581 92.3034 20.138 92.2224C20.0149 92.1413 19.8948 92.0572 19.7716 91.9671C19.6515 91.877 19.5284 91.7809 19.4083 91.6848C19.2882 91.5857 19.1711 91.4836 19.0509 91.3785C18.9338 91.2734 18.8137 91.1653 18.6996 91.0542C18.5855 90.9401 18.4684 90.826 18.3573 90.7089C18.2462 90.5918 18.1351 90.4717 18.03 90.3516C17.9219 90.2284 17.8168 90.1053 17.7147 89.9792C17.6156 89.8531 17.5165 89.727 17.4204 89.5978C17.3243 89.4687 17.2342 89.3396 17.1441 89.2074C17.057 89.0783 16.9729 88.9462 16.8919 88.8141C16.8138 88.6819 16.7387 88.5498 16.6666 88.4177C16.5976 88.2856 16.5315 88.1504 16.4685 88.0183C16.4084 87.8862 16.3543 87.7541 16.3033 87.6249C16.2522 87.4928 16.2072 87.3637 16.1712 87.2345C16.1321 87.1054 16.0991 86.9763 16.0751 86.8502C16.048 86.7241 16.03 86.6009 16.018 86.4778C16.006 86.3547 16 86.2346 16 86.1175C16.003 86.0004 16.012 85.8863 16.03 85.7721C16.2823 84.1416 17.4594 80.8444 19.2762 76.4962C21.0899 72.148 23.5463 66.7518 26.354 60.9202C30.9814 51.3079 34.8161 44.4913 37.801 39.8278C40.7859 35.1643 42.921 32.6569 44.1431 31.654C44.2062 31.6059 44.2693 31.5579 44.3383 31.5068C44.4044 31.4588 44.4765 31.4137 44.5515 31.3657C44.6236 31.3206 44.7017 31.2726 44.7798 31.2306C44.8608 31.1855 44.9419 31.1405 45.029 31.0984C45.1131 31.0564 45.2002 31.0143 45.2872 30.9753C45.3773 30.9363 45.4674 30.8972 45.5605 30.8582C45.6536 30.8222 45.7467 30.7861 45.8428 30.7501C45.9389 30.7141 46.035 30.681 46.1341 30.648C46.2302 30.615 46.3292 30.5849 46.4313 30.5549C46.5304 30.5279 46.6325 30.5009 46.7316 30.4738C46.8337 30.4468 46.9358 30.4228 47.0379 30.3988C47.14 30.3777 47.2421 30.3567 47.3442 30.3357C47.4433 30.3177 47.5454 30.2997 47.6475 30.2816C47.7496 30.2666 47.8487 30.2516 47.9478 30.2396C48.0499 30.2276 48.149 30.2186 48.2451 30.2096C48.3442 30.2006 48.4403 30.1946 48.5364 30.1916C48.6325 30.1855 48.7256 30.1855 48.8186 30.1855C48.9117 30.1855 49.0018 30.1885 49.0889 30.1916C49.179 30.1976 49.2631 30.2036 49.3502 30.2126C49.4342 30.2216 49.5153 30.2336 49.5934 30.2456C49.6745 30.2606 49.7495 30.2756 49.8246 30.2967C49.8967 30.3147 49.9688 30.3357 50.0348 30.3597C50.1009 30.3837 50.1669 30.4108 50.227 30.4408C50.2871 30.4678 50.3441 30.5009 50.3982 30.5339C50.4492 30.5699 50.4973 30.606 50.5423 30.645C50.5873 30.687 50.6294 30.7291 50.6654 30.7741C50.7015 30.8222 50.7315 30.8702 50.7585 30.9213C50.7855 30.9723 50.8096 31.0294 50.8246 31.0864C50.8426 31.1435 50.8546 31.2035 50.8606 31.2696C50.8666 31.3327 50.8666 31.3987 50.8606 31.4708C50.8546 31.5399 50.8456 31.6149 50.8276 31.69C50.8126 31.7681 50.7885 31.8492 50.7585 31.9302Z" fill="black"/>
<path d="M69.9618 31.9607C69.6345 32.7414 67.7427 34.4741 65.0281 37.9004C62.3135 41.3297 58.7761 46.4527 55.1636 54.014C52.3408 59.9237 50.4821 65.2598 49.2449 69.2326C48.0077 73.2085 47.3891 75.824 47.0437 76.2894C47.0047 76.3465 46.9597 76.3975 46.9146 76.4456C46.8696 76.4936 46.8215 76.5387 46.7705 76.5807C46.7194 76.6197 46.6684 76.6588 46.6113 76.6918C46.5573 76.7279 46.5032 76.7579 46.4432 76.7849C46.3861 76.8119 46.326 76.836 46.266 76.857C46.2029 76.878 46.1399 76.896 46.0768 76.911C46.0107 76.926 45.9447 76.9381 45.8786 76.9471C45.8126 76.9561 45.7435 76.9621 45.6744 76.9651C45.6054 76.9681 45.5363 76.9681 45.4642 76.9651C45.3952 76.9621 45.3231 76.9591 45.251 76.9501C45.1789 76.9411 45.1069 76.932 45.0348 76.92C44.9627 76.905 44.8877 76.89 44.8156 76.872C44.7405 76.854 44.6684 76.833 44.5964 76.8119C44.5213 76.7879 44.4492 76.7639 44.3742 76.7369C44.3021 76.7098 44.23 76.6798 44.158 76.6468C44.0859 76.6167 44.0138 76.5837 43.9417 76.5477C43.8727 76.5116 43.8006 76.4726 43.7315 76.4336C43.6625 76.3945 43.5934 76.3525 43.5273 76.3074C43.4583 76.2654 43.3922 76.2204 43.3262 76.1753C43.2631 76.1273 43.197 76.0792 43.137 76.0282C43.0739 75.9771 43.0109 75.9261 42.9538 75.875C42.8937 75.821 42.8367 75.7669 42.7796 75.7099C42.7256 75.6558 42.6715 75.5958 42.6205 75.5387C42.5694 75.4786 42.5184 75.4186 42.4733 75.3585C42.4253 75.2985 42.3802 75.2354 42.3382 75.1724C42.2962 75.1093 42.2541 75.0462 42.2181 74.9802C42.1821 74.9141 42.146 74.848 42.116 74.782C42.083 74.7159 42.0559 74.6468 42.0289 74.5778C42.0049 74.5087 41.9809 74.4396 41.9628 74.3706C41.9448 74.3015 41.9268 74.2294 41.9148 74.1574C41.9028 74.0883 41.8938 74.0162 41.8908 73.9442C41.8848 73.8721 41.8848 73.8 41.8848 73.728C41.9088 73.1244 43.1009 69.5509 44.8516 64.9625C46.6023 60.3741 48.9085 54.7707 51.1577 50.1072C54.3258 43.5429 57.2176 38.6692 59.4367 35.357C61.6558 32.0478 63.2053 30.3001 63.6828 29.9938C63.7488 29.9518 63.8179 29.9127 63.887 29.8737C63.9591 29.8376 64.0341 29.8016 64.1092 29.7686C64.1873 29.7355 64.2653 29.7055 64.3464 29.6755C64.4275 29.6485 64.5116 29.6214 64.5957 29.5974C64.6827 29.5734 64.7698 29.5494 64.8569 29.5313C64.944 29.5103 65.0341 29.4923 65.1272 29.4773C65.2173 29.4593 65.3104 29.4473 65.4034 29.4353C65.4995 29.4232 65.5926 29.4142 65.6887 29.4082C65.7848 29.3992 65.8809 29.3932 65.977 29.3902C66.0731 29.3872 66.1692 29.3872 66.2683 29.3872C66.3644 29.3872 66.4635 29.3902 66.5596 29.3932C66.6556 29.3992 66.7547 29.4052 66.8508 29.4142C66.9469 29.4202 67.043 29.4323 67.1391 29.4443C67.2352 29.4563 67.3313 29.4713 67.4244 29.4863C67.5205 29.5043 67.6136 29.5193 67.7037 29.5404C67.7967 29.5584 67.8868 29.5794 67.9769 29.6034C68.067 29.6274 68.1541 29.6515 68.2382 29.6785C68.3253 29.7055 68.4093 29.7355 68.4934 29.7656C68.5745 29.7956 68.6556 29.8286 68.7307 29.8617C68.8087 29.8947 68.8838 29.9307 68.9589 29.9668C69.0309 30.0028 69.1 30.0418 69.1691 30.0839C69.2351 30.1229 69.3012 30.165 69.3613 30.21C69.4213 30.252 69.4814 30.2971 69.5354 30.3451C69.5895 30.3902 69.6405 30.4382 69.6886 30.4893C69.7366 30.5403 69.7787 30.5914 69.8177 30.6424C69.8567 30.6965 69.8928 30.7505 69.9258 30.8046C69.9558 30.8616 69.9829 30.9187 70.0069 30.9787C70.0279 31.0358 70.0459 31.0959 70.0579 31.1589C70.0699 31.219 70.0789 31.282 70.082 31.3481C70.085 31.4112 70.082 31.4772 70.0759 31.5433C70.0669 31.6124 70.0549 31.6784 70.0369 31.7505C70.0189 31.8196 69.9919 31.8886 69.9618 31.9607Z" fill="black"/>
<path d="M40.7158 74.1264C40.1213 72.3727 39.7099 69.3578 39.4847 65.9855C39.2564 62.6133 39.2144 58.8807 39.3525 55.6976C39.6138 49.6648 40.2954 44.4788 41.0161 40.4909C41.7398 36.5001 42.4996 33.7074 42.923 32.4522C42.956 32.3621 42.992 32.272 43.0341 32.1849C43.0791 32.0948 43.1272 32.0077 43.1842 31.9207C43.2383 31.8336 43.3013 31.7465 43.3674 31.6594C43.4335 31.5753 43.5055 31.4913 43.5836 31.4072C43.6617 31.3261 43.7428 31.242 43.8298 31.1639C43.9169 31.0829 44.007 31.0048 44.1031 30.9267C44.1962 30.8486 44.2953 30.7736 44.3974 30.6985C44.5025 30.6234 44.6076 30.5513 44.7157 30.4793C44.8268 30.4102 44.9379 30.3411 45.055 30.2721C45.1691 30.206 45.2863 30.1399 45.4064 30.0799C45.5295 30.0168 45.6496 29.9538 45.7757 29.8967C45.8988 29.8367 46.025 29.7826 46.1511 29.7286C46.2802 29.6745 46.4093 29.6234 46.5385 29.5754C46.6676 29.5274 46.7967 29.4793 46.9288 29.4373C47.061 29.3922 47.1931 29.3532 47.3222 29.3142C47.4543 29.2781 47.5865 29.2421 47.7156 29.2121C47.8477 29.179 47.9798 29.152 48.109 29.125C48.2381 29.1009 48.3672 29.0769 48.4933 29.0589C48.6225 29.0409 48.7486 29.0259 48.8717 29.0139C48.9978 29.0019 49.1179 28.9928 49.2411 28.9898C49.3612 28.9838 49.4783 28.9838 49.5924 28.9868C49.7095 28.9898 49.8206 28.9958 49.9317 29.0079C50.0398 29.0169 50.1479 29.0319 50.25 29.0499C50.3521 29.0709 50.4542 29.0919 50.5473 29.122C50.6434 29.149 50.7365 29.179 50.8206 29.2151C50.9077 29.2511 50.9918 29.2931 51.0698 29.3382C51.1449 29.3832 51.217 29.4343 51.286 29.4883C51.3521 29.5424 51.4152 29.6024 51.4722 29.6655C51.5263 29.7316 51.5773 29.8006 51.6224 29.8727C51.6644 29.9478 51.7034 30.0288 51.7335 30.1129C51.7635 30.197 51.7905 30.2871 51.8055 30.3832C51.8236 30.4763 51.8326 30.5784 51.8356 30.6835C51.8386 30.8666 50.6314 34.1188 49.3732 38.8333C48.118 43.5509 46.8117 49.7308 46.6285 55.7727C46.4454 61.7274 46.6916 66.1747 47.0159 69.3968C47.3402 72.6189 47.7426 74.6128 47.8747 75.6548C47.8868 75.7509 47.8928 75.844 47.8928 75.9281C47.8898 76.0152 47.8838 76.0993 47.8717 76.1773C47.8567 76.2554 47.8387 76.3275 47.8117 76.3996C47.7877 76.4686 47.7576 76.5347 47.7216 76.5947C47.6856 76.6548 47.6465 76.7149 47.5985 76.7659C47.5534 76.82 47.5024 76.868 47.4483 76.913C47.3943 76.9611 47.3342 77.0001 47.2712 77.0392C47.2051 77.0752 47.139 77.1112 47.067 77.1413C46.9949 77.1713 46.9198 77.1983 46.8417 77.2193C46.7637 77.2434 46.6826 77.2614 46.5985 77.2764C46.5114 77.2914 46.4243 77.3034 46.3343 77.3124C46.2442 77.3214 46.1511 77.3274 46.055 77.3274C45.9619 77.3305 45.8628 77.3274 45.7637 77.3244C45.6646 77.3184 45.5655 77.3124 45.4604 77.3004C45.3583 77.2884 45.2562 77.2734 45.1511 77.2554C45.046 77.2374 44.9409 77.2193 44.8328 77.1953C44.7277 77.1713 44.6196 77.1443 44.5115 77.1142C44.4034 77.0842 44.2953 77.0512 44.1872 77.0181C44.0791 76.9821 43.971 76.9431 43.8629 76.901C43.7578 76.862 43.6497 76.817 43.5416 76.7719C43.4365 76.7269 43.3314 76.6758 43.2263 76.6248C43.1212 76.5737 43.0191 76.5197 42.917 76.4626C42.8149 76.4086 42.7158 76.3485 42.6167 76.2884C42.5206 76.2254 42.4245 76.1623 42.3284 76.0963C42.2353 76.0302 42.1452 75.9611 42.0551 75.8921C41.9681 75.823 41.881 75.7509 41.7969 75.6759C41.7158 75.6008 41.6347 75.5227 41.5597 75.4446C41.4816 75.3666 41.4095 75.2855 41.3404 75.2014C41.2714 75.1203 41.2053 75.0362 41.1423 74.9492C41.0822 74.8621 41.0251 74.775 40.9741 74.6849C40.92 74.5948 40.872 74.5047 40.83 74.4116C40.7879 74.3155 40.7489 74.2225 40.7158 74.1264Z" fill="black"/>
<path d="M89.5524 41.8853C89.3782 42.2157 88.5674 42.6631 87.0389 44.4078C85.5105 46.1494 83.2643 49.1854 80.2224 54.6867C77.1684 60.206 75.652 64.0887 74.8532 66.6562C74.0514 69.2237 73.9703 70.4729 73.7782 70.7282C73.7601 70.7552 73.7391 70.7792 73.7151 70.8032C73.6941 70.8242 73.6701 70.8453 73.646 70.8633C73.622 70.8813 73.598 70.8963 73.571 70.9113C73.5439 70.9233 73.5169 70.9353 73.4899 70.9474C73.4599 70.9564 73.4328 70.9654 73.4028 70.9714C73.3728 70.9774 73.3427 70.9834 73.3097 70.9864C73.2797 70.9894 73.2466 70.9894 73.2136 70.9894C73.1836 70.9894 73.1506 70.9864 73.1145 70.9834C73.0815 70.9804 73.0485 70.9744 73.0124 70.9684C72.9794 70.9624 72.9434 70.9534 72.9103 70.9444C72.8743 70.9353 72.8383 70.9233 72.8022 70.9113C72.7662 70.8993 72.7332 70.8843 72.6971 70.8693C72.6611 70.8543 72.6251 70.8393 72.589 70.8212C72.553 70.8032 72.5169 70.7852 72.4809 70.7672C72.4449 70.7462 72.4088 70.7251 72.3728 70.7041C72.3368 70.6831 72.3007 70.6591 72.2647 70.6351C72.2317 70.614 72.1956 70.587 72.1596 70.563C72.1266 70.536 72.0905 70.5119 72.0575 70.4849C72.0245 70.4579 71.9914 70.4279 71.9584 70.4008C71.9254 70.3708 71.8923 70.3438 71.8623 70.3138C71.8293 70.2837 71.7993 70.2537 71.7692 70.2207C71.7392 70.1906 71.7092 70.1606 71.6791 70.1276C71.6521 70.0945 71.6221 70.0615 71.5951 70.0285C71.568 69.9954 71.544 69.9624 71.517 69.9294C71.493 69.8963 71.4689 69.8633 71.4479 69.8303C71.4239 69.7942 71.4029 69.7612 71.3819 69.7252C71.3608 69.6921 71.3428 69.6561 71.3248 69.6231C71.3068 69.587 71.2888 69.554 71.2737 69.518C71.2587 69.4849 71.2437 69.4489 71.2317 69.4129C71.2197 69.3799 71.2077 69.3438 71.1987 69.3108C71.1897 69.2777 71.1837 69.2417 71.1777 69.2087C71.1717 69.1757 71.1656 69.1396 71.1626 69.1066C71.1266 68.6411 71.4779 67.0166 72.5109 64.2929C73.5469 61.5663 75.2646 57.7436 77.9582 52.8759C80.5467 48.2094 82.922 44.7411 84.7387 42.3868C86.5555 40.0325 87.8137 38.7893 88.162 38.5731C88.1981 38.5521 88.2341 38.5341 88.2671 38.5191C88.3032 38.5041 88.3362 38.4921 88.3722 38.4831C88.4053 38.474 88.4383 38.471 88.4713 38.468C88.5044 38.465 88.5374 38.465 88.5704 38.471C88.6035 38.474 88.6365 38.48 88.6695 38.4891C88.6995 38.4981 88.7326 38.5101 88.7626 38.5251C88.7926 38.5371 88.8227 38.5551 88.8527 38.5731C88.8827 38.5942 88.9128 38.6152 88.9428 38.6392C88.9698 38.6632 88.9998 38.6872 89.0269 38.7143C89.0539 38.7443 89.0809 38.7743 89.1079 38.8044C89.135 38.8374 89.159 38.8704 89.186 38.9065C89.21 38.9395 89.2341 38.9785 89.2581 39.0176C89.2821 39.0566 89.3061 39.0956 89.3272 39.1377C89.3512 39.1797 89.3722 39.2218 89.3932 39.2668C89.4142 39.3088 89.4353 39.3539 89.4533 39.4019C89.4743 39.447 89.4923 39.495 89.5103 39.5431C89.5283 39.5911 89.5434 39.6422 89.5614 39.6902C89.5764 39.7413 89.5914 39.7923 89.6064 39.8434C89.6184 39.8944 89.6334 39.9455 89.6455 39.9995C89.6575 40.0506 89.6695 40.1016 89.6785 40.1557C89.6905 40.2097 89.6995 40.2608 89.7055 40.3148C89.7145 40.3689 89.7235 40.4229 89.7295 40.474C89.7355 40.528 89.7385 40.5821 89.7446 40.6331C89.7476 40.6872 89.7506 40.7412 89.7536 40.7923C89.7536 40.8433 89.7536 40.8974 89.7536 40.9484C89.7536 40.9995 89.7506 41.0505 89.7476 41.0986C89.7446 41.1496 89.7416 41.1977 89.7355 41.2487C89.7295 41.2968 89.7235 41.3448 89.7145 41.3899C89.7085 41.4349 89.6965 41.4829 89.6875 41.525C89.6755 41.57 89.6635 41.6121 89.6515 41.6541C89.6365 41.6962 89.6214 41.7382 89.6064 41.7742C89.5914 41.8133 89.5734 41.8523 89.5524 41.8853Z" fill="black"/>
<path d="M84.0804 68.95C83.7741 67.905 83.3447 65.4697 83.1285 62.4668C82.9093 59.4639 82.9062 55.8904 83.4498 52.5783C84.0594 48.8607 85.0053 45.4734 85.9392 42.8609C86.8701 40.2454 87.789 38.3986 88.3415 37.762C88.3715 37.7259 88.4045 37.6929 88.4376 37.6629C88.4706 37.6328 88.5036 37.6058 88.5397 37.5818C88.5757 37.5548 88.6117 37.5337 88.6508 37.5127C88.6868 37.4947 88.7259 37.4767 88.7649 37.4617C88.8039 37.4467 88.846 37.4316 88.885 37.4226C88.9271 37.4106 88.9691 37.4016 89.0111 37.3956C89.0532 37.3896 89.0982 37.3866 89.1403 37.3836C89.1853 37.3806 89.2273 37.3806 89.2724 37.3836C89.3174 37.3866 89.3625 37.3896 89.4075 37.3956C89.4526 37.4016 89.4976 37.4076 89.5426 37.4196C89.5877 37.4286 89.6327 37.4407 89.6778 37.4527C89.7258 37.4647 89.7709 37.4797 89.8159 37.4977C89.861 37.5127 89.906 37.5307 89.951 37.5518C89.9991 37.5728 90.0441 37.5938 90.0892 37.6148C90.1342 37.6388 90.1763 37.6629 90.2213 37.6869C90.2663 37.7139 90.3084 37.7409 90.3534 37.771C90.3955 37.798 90.4375 37.828 90.4795 37.8581C90.5216 37.8881 90.5636 37.9211 90.6027 37.9541C90.6447 37.9872 90.6837 38.0232 90.7228 38.0562C90.7618 38.0923 90.7979 38.1283 90.8369 38.1674C90.8729 38.2034 90.909 38.2424 90.945 38.2815C90.978 38.3205 91.0111 38.3625 91.0441 38.4016C91.0771 38.4436 91.1072 38.4857 91.1372 38.5277C91.1672 38.5697 91.1972 38.6118 91.2243 38.6568C91.2513 38.7019 91.2753 38.7439 91.2993 38.789C91.3234 38.834 91.3474 38.879 91.3654 38.9271C91.3864 38.9721 91.4074 39.0172 91.4225 39.0652C91.4405 39.1133 91.4555 39.1583 91.4705 39.2064C91.4825 39.2544 91.4945 39.3024 91.5035 39.3475C91.5125 39.3955 91.5186 39.4436 91.5246 39.4916C91.5306 39.5397 91.5336 39.5877 91.5336 39.6358C91.5336 39.6868 91.5336 39.7349 91.5276 39.7829C91.4975 40.1343 90.7888 41.2693 89.942 43.3834C89.0952 45.4974 88.1133 48.5904 87.5397 52.8515C87.0052 56.8394 87.1944 60.4338 87.5607 63.3196C87.9301 66.2054 88.4796 68.3855 88.6688 69.5446C88.6778 69.5836 88.6778 69.6227 88.6778 69.6617C88.6748 69.6978 88.6688 69.7368 88.6598 69.7698C88.6508 69.8059 88.6358 69.8389 88.6178 69.8719C88.6027 69.905 88.5817 69.938 88.5577 69.968C88.5337 69.998 88.5036 70.0281 88.4736 70.0551C88.4436 70.0821 88.4106 70.1092 88.3745 70.1332C88.3385 70.1572 88.2964 70.1812 88.2544 70.2052C88.2124 70.2263 88.1673 70.2473 88.1223 70.2683C88.0742 70.2863 88.0262 70.3043 87.9751 70.3224C87.9211 70.3404 87.87 70.3554 87.813 70.3674C87.7589 70.3824 87.7019 70.3944 87.6418 70.4064C87.5818 70.4154 87.5217 70.4275 87.4586 70.4335C87.3986 70.4425 87.3355 70.4485 87.2695 70.4545C87.2064 70.4605 87.1403 70.4635 87.0743 70.4665C87.0082 70.4665 86.9391 70.4665 86.8731 70.4665C86.804 70.4665 86.7349 70.4635 86.6659 70.4605C86.5968 70.4545 86.5277 70.4485 86.4587 70.4425C86.3896 70.4365 86.3205 70.4275 86.2515 70.4154C86.1824 70.4064 86.1103 70.3944 86.0413 70.3794C85.9722 70.3644 85.9061 70.3494 85.8371 70.3314C85.768 70.3164 85.7019 70.2953 85.6359 70.2773C85.5668 70.2563 85.5038 70.2323 85.4377 70.2113C85.3746 70.1872 85.3086 70.1602 85.2485 70.1332C85.1854 70.1061 85.1254 70.0761 85.0653 70.0461C85.0053 70.0131 84.9482 69.983 84.8942 69.947C84.8371 69.914 84.7831 69.8779 84.732 69.8389C84.681 69.7999 84.6299 69.7608 84.5819 69.7188C84.5368 69.6767 84.4918 69.6347 84.4467 69.5866C84.4047 69.5416 84.3657 69.4966 84.3296 69.4455C84.2906 69.3975 84.2576 69.3464 84.2275 69.2924C84.1945 69.2383 84.1675 69.1843 84.1434 69.1272C84.1194 69.0701 84.0954 69.0131 84.0804 68.95Z" fill="black"/>
<path d="M94.007 55.6201C93.6706 55.6682 92.4905 55.6021 90.4065 55.8544C88.3255 56.1066 85.3436 56.6802 81.4008 58.0104C77.2508 59.4098 74.5242 60.8212 72.7164 61.9953C70.9057 63.1664 70.0108 64.0973 69.5214 64.5327C69.4853 64.5628 69.4493 64.5898 69.4132 64.6168C69.3742 64.6438 69.3352 64.6679 69.2961 64.6889C69.2571 64.7099 69.2181 64.7279 69.176 64.7459C69.134 64.764 69.0919 64.779 69.0499 64.791C69.0049 64.803 68.9628 64.815 68.9178 64.821C68.8727 64.83 68.8277 64.836 68.7826 64.842C68.7376 64.848 68.6926 64.851 68.6445 64.851C68.5995 64.851 68.5514 64.851 68.5064 64.848C68.4583 64.845 68.4133 64.842 68.3652 64.836C68.3172 64.83 68.2721 64.821 68.2241 64.812C68.1791 64.803 68.131 64.791 68.086 64.779C68.0379 64.767 67.9929 64.7549 67.9478 64.7399C67.9028 64.7249 67.8577 64.7069 67.8127 64.6919C67.7677 64.6739 67.7226 64.6529 67.6806 64.6348C67.6355 64.6138 67.5935 64.5928 67.5515 64.5718C67.5094 64.5477 67.4674 64.5267 67.4283 64.5027C67.3893 64.4787 67.3503 64.4517 67.3112 64.4276C67.2722 64.4006 67.2361 64.3736 67.2001 64.3466C67.1641 64.3165 67.131 64.2895 67.098 64.2595C67.065 64.2324 67.035 64.2024 67.0049 64.1694C66.9749 64.1394 66.9449 64.1093 66.9178 64.0793C66.8908 64.0463 66.8668 64.0132 66.8428 63.9832C66.8217 63.9502 66.8007 63.9171 66.7797 63.8841C66.7617 63.8511 66.7437 63.818 66.7287 63.785C66.7136 63.749 66.7016 63.7159 66.6896 63.6829C66.6776 63.6469 66.6686 63.6138 66.6626 63.5808C66.6566 63.5448 66.6536 63.5118 66.6536 63.4787C66.6506 63.4427 66.6536 63.4097 66.6566 63.3766C66.6626 63.3406 66.6686 63.3076 66.6776 63.2745C66.6866 63.2415 66.6986 63.2085 66.7166 63.1754C66.7317 63.1424 66.7497 63.1094 66.7707 63.0793C66.7917 63.0463 66.8157 63.0163 66.8458 62.9832C67.1491 62.6469 68.089 61.707 70.2481 60.4038C72.4041 59.1005 75.7764 57.4369 80.9444 55.6592C82.6981 55.0556 85.2295 54.2508 87.5507 53.6322C89.872 53.0136 91.983 52.5812 92.8959 52.7254C92.9469 52.7344 92.995 52.7434 93.043 52.7554C93.0911 52.7674 93.1391 52.7824 93.1842 52.7974C93.2322 52.8154 93.2773 52.8335 93.3193 52.8515C93.3643 52.8725 93.4064 52.8935 93.4484 52.9175C93.4875 52.9416 93.5295 52.9656 93.5685 52.9926C93.6076 53.0196 93.6466 53.0467 93.6826 53.0767C93.7187 53.1037 93.7547 53.1337 93.7877 53.1668C93.8238 53.1998 93.8568 53.2328 93.8898 53.2659C93.9199 53.2989 93.9529 53.3349 93.9829 53.371C94.013 53.407 94.04 53.443 94.067 53.4821C94.094 53.5181 94.1211 53.5572 94.1451 53.5962C94.1721 53.6352 94.1931 53.6773 94.2172 53.7163C94.2382 53.7583 94.2622 53.7974 94.2802 53.8394C94.3012 53.8815 94.3193 53.9205 94.3373 53.9625C94.3553 54.0046 94.3703 54.0466 94.3853 54.0887C94.4003 54.1307 94.4154 54.1727 94.4274 54.2148C94.4394 54.2598 94.4514 54.3019 94.4604 54.3439C94.4724 54.3829 94.4784 54.425 94.4874 54.467C94.4934 54.5091 94.4994 54.5511 94.5054 54.5901C94.5114 54.6322 94.5144 54.6712 94.5175 54.7103C94.5175 54.7493 94.5205 54.7883 94.5175 54.8274C94.5175 54.8664 94.5175 54.9025 94.5144 54.9385C94.5084 54.9745 94.5054 55.0106 94.4994 55.0466C94.4934 55.0796 94.4874 55.1127 94.4784 55.1457C94.4694 55.1787 94.4604 55.2087 94.4484 55.2388C94.4364 55.2688 94.4244 55.2958 94.4124 55.3229C94.3973 55.3499 94.3823 55.3769 94.3643 55.4009C94.3493 55.425 94.3313 55.446 94.3103 55.467C94.2922 55.488 94.2712 55.506 94.2472 55.524C94.2262 55.5391 94.2021 55.5541 94.1751 55.5691C94.1511 55.5811 94.1241 55.5931 94.097 55.6021C94.07 55.6111 94.04 55.6171 94.007 55.6201Z" fill="black"/>
<path d="M122.576 24.3423C122.432 24.9399 120.633 27.5134 117.921 32.0958C115.213 36.6812 111.594 43.2755 107.811 51.9149C103.97 60.6803 101.895 66.8333 100.697 71.1334C99.4955 75.4335 99.1712 77.8779 98.8349 79.2322C98.8139 79.3193 98.7868 79.3974 98.7538 79.4694C98.7238 79.5415 98.6847 79.6046 98.6427 79.6646C98.6007 79.7217 98.5526 79.7727 98.5016 79.8178C98.4505 79.8628 98.3935 79.9019 98.3334 79.9349C98.2733 79.9679 98.2073 79.9949 98.1382 80.016C98.0691 80.037 97.9971 80.052 97.922 80.061C97.8469 80.07 97.7689 80.076 97.6878 80.073C97.6037 80.073 97.5196 80.067 97.4325 80.055C97.3454 80.043 97.2554 80.025 97.1623 80.004C97.0692 79.9829 96.9731 79.9589 96.877 79.9289C96.7809 79.8958 96.6818 79.8628 96.5827 79.8238C96.4836 79.7847 96.3815 79.7427 96.2794 79.6947C96.1743 79.6466 96.0722 79.5956 95.9671 79.5415C95.862 79.4875 95.7569 79.4274 95.6518 79.3673C95.5467 79.3043 95.4416 79.2412 95.3335 79.1722C95.2284 79.1031 95.1233 79.034 95.0182 78.9589C94.9131 78.8839 94.808 78.8088 94.7029 78.7307C94.5978 78.6496 94.4927 78.5686 94.3906 78.4845C94.2885 78.4004 94.1864 78.3133 94.0873 78.2262C93.9882 78.1362 93.8891 78.0461 93.793 77.956C93.6969 77.8629 93.6008 77.7698 93.5108 77.6737C93.4177 77.5776 93.3276 77.4815 93.2405 77.3854C93.1534 77.2863 93.0693 77.1872 92.9882 77.0881C92.9042 76.989 92.8261 76.887 92.751 76.7849C92.6759 76.6858 92.6039 76.5837 92.5378 76.4816C92.4687 76.3795 92.4057 76.2744 92.3456 76.1723C92.2856 76.0702 92.2285 75.9681 92.1775 75.866C92.1264 75.7639 92.0784 75.6588 92.0363 75.5597C91.9943 75.4576 91.9583 75.3555 91.9252 75.2534C91.8952 75.1543 91.8682 75.0552 91.8471 74.9561C91.8261 74.857 91.8141 74.7579 91.8021 74.6618C91.7961 74.5657 91.7931 74.4696 91.7961 74.3765C91.8051 74.1453 92.6339 71.5508 94.2014 67.3558C95.7689 63.1607 98.0752 57.3681 101.036 50.7347C104.357 43.2996 107.474 37.1226 109.895 32.6903C112.315 28.2581 114.036 25.5735 114.558 25.1291C114.621 25.075 114.687 25.024 114.756 24.9699C114.828 24.9158 114.903 24.8648 114.981 24.8107C115.063 24.7597 115.144 24.7086 115.231 24.6546C115.315 24.6035 115.405 24.5525 115.498 24.5014C115.591 24.4504 115.687 24.3993 115.786 24.3513C115.885 24.3003 115.984 24.2522 116.09 24.2042C116.195 24.1561 116.3 24.1081 116.408 24.06C116.516 24.015 116.627 23.9699 116.738 23.9249C116.849 23.8798 116.963 23.8378 117.077 23.7928C117.192 23.7507 117.309 23.7117 117.426 23.6696C117.543 23.6306 117.66 23.5916 117.777 23.5555C117.897 23.5195 118.014 23.4835 118.134 23.4474C118.255 23.4144 118.372 23.3814 118.492 23.3513C118.612 23.3213 118.729 23.2913 118.849 23.2643C118.966 23.2372 119.083 23.2102 119.201 23.1862C119.318 23.1652 119.435 23.1411 119.549 23.1231C119.663 23.1051 119.777 23.0871 119.888 23.0721C119.999 23.0571 120.11 23.042 120.219 23.033C120.327 23.021 120.432 23.015 120.537 23.009C120.639 23.003 120.741 23 120.84 23C120.939 23 121.035 23 121.128 23.006C121.221 23.009 121.312 23.018 121.396 23.03C121.483 23.039 121.564 23.0541 121.645 23.0691C121.723 23.0871 121.798 23.1051 121.87 23.1261C121.939 23.1501 122.005 23.1772 122.068 23.2042C122.131 23.2342 122.188 23.2673 122.239 23.3033C122.294 23.3393 122.342 23.3784 122.384 23.4204C122.426 23.4624 122.462 23.5075 122.495 23.5585C122.525 23.6096 122.552 23.6636 122.57 23.7207C122.591 23.7777 122.606 23.8378 122.612 23.9039C122.621 23.9699 122.621 24.039 122.615 24.1111C122.609 24.1831 122.597 24.2612 122.576 24.3423Z" fill="black"/>
<path d="M96.9765 30.3721C98.1626 29.7835 102.697 29.0088 107.835 28.2851C112.976 27.5614 118.717 26.8857 122.318 26.4893C128.447 25.8167 133.651 25.5524 137.522 25.5554C141.392 25.5615 143.933 25.8317 144.732 26.2371C144.804 26.2701 144.867 26.3092 144.924 26.3512C144.981 26.3963 145.032 26.4413 145.077 26.4893C145.122 26.5404 145.158 26.5914 145.191 26.6455C145.224 26.7026 145.251 26.7596 145.269 26.8197C145.29 26.8797 145.305 26.9428 145.317 27.0088C145.326 27.0749 145.329 27.144 145.329 27.213C145.329 27.2821 145.323 27.3542 145.311 27.4293C145.299 27.5013 145.284 27.5794 145.263 27.6575C145.245 27.7325 145.221 27.8136 145.191 27.8947C145.161 27.9728 145.128 28.0569 145.092 28.1379C145.056 28.222 145.014 28.3061 144.969 28.3902C144.924 28.4743 144.876 28.5613 144.825 28.6454C144.774 28.7325 144.72 28.8196 144.659 28.9067C144.602 28.9938 144.539 29.0808 144.476 29.1679C144.413 29.255 144.344 29.3451 144.275 29.4322C144.206 29.5193 144.134 29.6064 144.062 29.6934C143.987 29.7805 143.912 29.8646 143.834 29.9517C143.753 30.0358 143.675 30.1198 143.59 30.2039C143.509 30.288 143.425 30.3721 143.341 30.4532C143.257 30.5342 143.17 30.6153 143.083 30.6964C142.996 30.7745 142.906 30.8526 142.819 30.9276C142.729 31.0027 142.639 31.0778 142.548 31.1498C142.458 31.2219 142.365 31.291 142.275 31.36C142.185 31.4291 142.092 31.4952 142.002 31.5582C141.909 31.6213 141.819 31.6814 141.726 31.7384C141.636 31.7985 141.545 31.8525 141.455 31.9036C141.365 31.9576 141.275 32.0057 141.185 32.0507C141.098 32.0988 141.011 32.1408 140.924 32.1798C140.837 32.2189 140.753 32.2549 140.669 32.2879C140.585 32.318 140.503 32.348 140.422 32.372C140.341 32.396 140.263 32.4141 140.185 32.4321C140.11 32.4471 140.035 32.4591 139.963 32.4651C139.179 32.5402 138.341 31.7084 135.708 31.1168C133.074 30.5222 128.642 30.1649 120.675 31.1889C114.084 32.0327 109.396 33.1858 106.09 34.1227C102.784 35.0626 100.859 35.7893 99.7902 35.7893C99.7332 35.7893 99.6731 35.7863 99.616 35.7773C99.556 35.7683 99.4989 35.7563 99.4359 35.7383C99.3758 35.7232 99.3158 35.7022 99.2557 35.6782C99.1926 35.6542 99.1326 35.6242 99.0695 35.5941C99.0065 35.5641 98.9464 35.5281 98.8833 35.492C98.8203 35.453 98.7572 35.4109 98.6942 35.3689C98.6311 35.3239 98.571 35.2758 98.508 35.2278C98.4449 35.1797 98.3819 35.1257 98.3218 35.0716C98.2587 35.0176 98.1987 34.9605 98.1386 34.9005C98.0756 34.8434 98.0155 34.7803 97.9584 34.7173C97.8984 34.6542 97.8383 34.5882 97.7813 34.5221C97.7242 34.456 97.6672 34.387 97.6131 34.3179C97.5561 34.2458 97.502 34.1768 97.448 34.1047C97.3939 34.0296 97.3429 33.9575 97.2918 33.8825C97.2408 33.8074 97.1927 33.7323 97.1447 33.6543C97.0966 33.5792 97.0516 33.5011 97.0065 33.426C96.9615 33.348 96.9224 33.2699 96.8804 33.1918C96.8384 33.1137 96.8023 33.0357 96.7663 32.9576C96.7303 32.8795 96.6942 32.8014 96.6642 32.7234C96.6312 32.6453 96.6011 32.5672 96.5741 32.4891C96.5471 32.4111 96.5231 32.336 96.502 32.2609C96.481 32.1828 96.46 32.1078 96.445 32.0357C96.427 31.9606 96.415 31.8886 96.4029 31.8165C96.3939 31.7444 96.3849 31.6753 96.3819 31.6063C96.3759 31.5372 96.3759 31.4681 96.3789 31.4051C96.3789 31.339 96.3849 31.276 96.3939 31.2129C96.4029 31.1498 96.418 31.0898 96.433 31.0327C96.448 30.9757 96.469 30.9216 96.493 30.8676C96.5171 30.8165 96.5441 30.7655 96.5771 30.7174C96.6071 30.6694 96.6432 30.6243 96.6852 30.5853C96.7243 30.5433 96.7693 30.5042 96.8173 30.4682C96.8654 30.4321 96.9194 30.3991 96.9765 30.3721Z" fill="black"/>
<path d="M135.885 39.5251C135.702 40.1527 134.534 41.6061 132.573 44.6751C130.615 47.7471 127.861 52.4346 124.501 59.5244C121.819 65.1879 119.789 70.5541 118.369 74.602C116.946 78.6469 116.132 81.3735 115.883 81.7519C115.838 81.8209 115.79 81.884 115.742 81.941C115.693 81.9951 115.642 82.0461 115.591 82.0942C115.54 82.1392 115.489 82.1783 115.435 82.2143C115.381 82.2503 115.324 82.2804 115.267 82.3044C115.21 82.3284 115.153 82.3494 115.096 82.3645C115.036 82.3795 114.976 82.3885 114.916 82.3945C114.856 82.4005 114.796 82.4035 114.733 82.4005C114.672 82.3975 114.609 82.3885 114.546 82.3765C114.483 82.3645 114.42 82.3494 114.354 82.3284C114.291 82.3104 114.228 82.2864 114.162 82.2594C114.099 82.2323 114.033 82.2023 113.97 82.1663C113.904 82.1302 113.838 82.0942 113.775 82.0522C113.709 82.0101 113.645 81.9651 113.579 81.917C113.516 81.872 113.453 81.8209 113.387 81.7669C113.324 81.7128 113.261 81.6558 113.198 81.5957C113.135 81.5387 113.075 81.4756 113.012 81.4125C112.952 81.3465 112.889 81.2804 112.832 81.2113C112.772 81.1423 112.712 81.0702 112.655 80.9981C112.594 80.9231 112.537 80.848 112.483 80.7729C112.426 80.6948 112.372 80.6168 112.318 80.5357C112.267 80.4546 112.213 80.3735 112.165 80.2895C112.114 80.2054 112.063 80.1213 112.018 80.0372C111.97 79.9501 111.925 79.863 111.88 79.776C111.838 79.6859 111.796 79.5988 111.754 79.5087C111.715 79.4186 111.676 79.3285 111.64 79.2354C111.604 79.1453 111.57 79.0553 111.537 78.9622C111.507 78.8691 111.477 78.779 111.45 78.6859C111.423 78.5928 111.399 78.4997 111.375 78.4096C111.354 78.3165 111.333 78.2235 111.318 78.1334C111.3 78.0403 111.288 77.9502 111.276 77.8571C111.264 77.767 111.255 77.6769 111.252 77.5868C111.246 77.4968 111.243 77.4097 111.243 77.3226C111.249 76.8842 111.892 74.635 113.084 71.3228C114.279 68.0106 116.021 63.6384 118.231 58.9539C120.402 54.3534 122.312 50.4076 123.909 47.3207C125.504 44.2367 126.789 42.0145 127.708 40.8644C127.771 40.7864 127.837 40.7113 127.909 40.6362C127.981 40.5611 128.056 40.4891 128.134 40.417C128.213 40.3449 128.297 40.2759 128.381 40.2098C128.468 40.1407 128.558 40.0747 128.651 40.0116C128.744 39.9485 128.837 39.8885 128.936 39.8284C129.035 39.7684 129.134 39.7083 129.24 39.6543C129.342 39.5972 129.447 39.5432 129.555 39.4921C129.663 39.4381 129.771 39.39 129.882 39.339C129.993 39.2909 130.107 39.2459 130.221 39.2008C130.336 39.1558 130.45 39.1137 130.567 39.0747C130.684 39.0357 130.801 38.9966 130.918 38.9606C131.035 38.9246 131.155 38.8885 131.272 38.8585C131.393 38.8255 131.51 38.7954 131.63 38.7654C131.747 38.7384 131.867 38.7114 131.984 38.6873C132.104 38.6633 132.221 38.6423 132.339 38.6213C132.456 38.6033 132.573 38.5852 132.687 38.5702C132.801 38.5552 132.915 38.5402 133.026 38.5282C133.14 38.5162 133.251 38.5072 133.359 38.5012C133.468 38.4951 133.576 38.4891 133.681 38.4861C133.786 38.4831 133.888 38.4831 133.987 38.4861C134.089 38.4861 134.185 38.4891 134.281 38.4951C134.374 38.5012 134.468 38.5102 134.555 38.5222C134.645 38.5312 134.729 38.5432 134.81 38.5582C134.894 38.5732 134.972 38.5912 135.044 38.6123C135.119 38.6303 135.188 38.6543 135.254 38.6783C135.32 38.7023 135.383 38.7264 135.44 38.7564C135.498 38.7834 135.549 38.8165 135.597 38.8495C135.642 38.8825 135.687 38.9186 135.723 38.9576C135.759 38.9936 135.792 39.0357 135.816 39.0777C135.843 39.1198 135.861 39.1648 135.876 39.2128C135.891 39.2609 135.897 39.3089 135.9 39.363C135.903 39.414 135.897 39.4711 135.885 39.5251Z" fill="black"/>
<path d="M152.608 35.42C152.448 36.0115 150.461 38.5099 147.713 42.6209C144.965 46.7289 141.458 52.4554 138.251 59.5002C134.578 67.569 132.942 73.83 132.089 78.2953C131.236 82.7606 131.167 85.4332 130.617 86.322C130.581 86.3791 130.542 86.4332 130.503 86.4782C130.461 86.5262 130.416 86.5683 130.368 86.6073C130.32 86.6434 130.272 86.6764 130.218 86.7034C130.167 86.7304 130.11 86.7545 130.053 86.7725C129.996 86.7905 129.939 86.8025 129.876 86.8115C129.816 86.8205 129.753 86.8265 129.687 86.8265C129.623 86.8265 129.554 86.8235 129.488 86.8145C129.419 86.8055 129.35 86.7935 129.278 86.7785C129.206 86.7635 129.134 86.7424 129.062 86.7214C128.987 86.6974 128.912 86.6704 128.837 86.6404C128.762 86.6103 128.687 86.5773 128.609 86.5413C128.53 86.5052 128.452 86.4662 128.374 86.4211C128.296 86.3791 128.218 86.3341 128.14 86.286C128.062 86.238 127.981 86.1869 127.903 86.1329C127.825 86.0788 127.744 86.0218 127.666 85.9647C127.588 85.9076 127.509 85.8446 127.428 85.7815C127.35 85.7185 127.272 85.6554 127.197 85.5863C127.119 85.5203 127.041 85.4512 126.966 85.3821C126.891 85.3101 126.816 85.238 126.741 85.1659C126.669 85.0909 126.597 85.0158 126.524 84.9407C126.452 84.8626 126.383 84.7846 126.314 84.7065C126.245 84.6284 126.179 84.5503 126.113 84.4693C126.047 84.3882 125.984 84.3071 125.921 84.223C125.861 84.1419 125.801 84.0579 125.744 83.9768C125.684 83.8927 125.63 83.8086 125.576 83.7245C125.525 83.6405 125.473 83.5564 125.425 83.4753C125.377 83.3912 125.332 83.3071 125.287 83.2231C125.245 83.139 125.206 83.0549 125.17 82.9708C125.134 82.8867 125.098 82.8057 125.068 82.7216C125.038 82.6405 125.011 82.5594 124.987 82.4783C124.963 82.3973 124.945 82.3192 124.927 82.2381C124.912 82.16 124.897 82.082 124.888 82.0069C124.819 81.4093 125.251 78.5415 126.422 74.2084C127.594 69.8782 129.506 64.0826 132.398 57.6444C135.359 51.053 138.422 45.3716 140.866 41.2396C143.314 37.1046 145.142 34.5221 145.632 34.1257C145.692 34.0777 145.758 34.0326 145.824 33.9876C145.89 33.9425 145.962 33.9005 146.034 33.8585C146.109 33.8164 146.184 33.7774 146.266 33.7414C146.347 33.7053 146.428 33.6693 146.512 33.6362C146.596 33.6032 146.686 33.5702 146.773 33.5402C146.863 33.5101 146.956 33.4831 147.049 33.4561C147.142 33.4321 147.238 33.408 147.335 33.384C147.431 33.363 147.53 33.342 147.629 33.3239C147.728 33.3059 147.83 33.2909 147.932 33.2759C148.034 33.2609 148.136 33.2489 148.238 33.2369C148.344 33.2279 148.446 33.2188 148.551 33.2128C148.656 33.2038 148.758 33.2008 148.863 33.1978C148.968 33.1948 149.073 33.1948 149.175 33.1948C149.28 33.1948 149.386 33.1978 149.488 33.2038C149.59 33.2098 149.692 33.2158 149.794 33.2249C149.896 33.2339 149.995 33.2429 150.094 33.2579C150.196 33.2699 150.292 33.2849 150.389 33.3029C150.485 33.3179 150.581 33.336 150.674 33.357C150.767 33.378 150.857 33.402 150.947 33.426C151.034 33.4501 151.121 33.4771 151.205 33.5071C151.289 33.5342 151.37 33.5642 151.452 33.5972C151.53 33.6302 151.605 33.6663 151.677 33.7023C151.752 33.7383 151.821 33.7774 151.887 33.8194C151.953 33.8615 152.016 33.9035 152.076 33.9486C152.133 33.9936 152.19 34.0386 152.241 34.0897C152.292 34.1377 152.337 34.1888 152.379 34.2428C152.424 34.2939 152.461 34.3509 152.497 34.408C152.53 34.465 152.56 34.5221 152.581 34.5852C152.605 34.6452 152.626 34.7083 152.638 34.7743C152.653 34.8404 152.662 34.9065 152.662 34.9755C152.665 35.0476 152.662 35.1197 152.653 35.1917C152.644 35.2668 152.629 35.3419 152.608 35.42Z" fill="black"/>
<path d="M148.971 63.3561C147.74 63.0648 145.605 62.3561 142.401 61.8967C139.197 61.4342 134.924 61.218 129.416 61.9087C121.15 62.9477 115.93 64.7104 112.639 66.2328C109.348 67.7553 107.985 69.0376 107.426 69.1066C107.363 69.1156 107.303 69.1216 107.243 69.1216C107.186 69.1216 107.129 69.1186 107.072 69.1126C107.018 69.1066 106.967 69.0976 106.916 69.0856C106.865 69.0706 106.817 69.0556 106.772 69.0376C106.727 69.0195 106.682 68.9955 106.64 68.9715C106.597 68.9475 106.558 68.9174 106.522 68.8874C106.483 68.8574 106.447 68.8243 106.414 68.7913C106.381 68.7553 106.348 68.7162 106.321 68.6772C106.291 68.6352 106.264 68.5931 106.237 68.5511C106.21 68.506 106.186 68.458 106.165 68.4099C106.144 68.3619 106.123 68.3109 106.105 68.2598C106.087 68.2058 106.072 68.1517 106.057 68.0976C106.042 68.0436 106.03 67.9865 106.018 67.9265C106.006 67.8694 105.997 67.8094 105.991 67.7493C105.982 67.6863 105.976 67.6262 105.973 67.5631C105.967 67.5001 105.964 67.434 105.964 67.3709C105.964 67.3049 105.964 67.2388 105.967 67.1758C105.97 67.1067 105.973 67.0406 105.979 66.9746C105.982 66.9055 105.991 66.8394 106 66.7704C106.006 66.7043 106.018 66.6352 106.03 66.5662C106.039 66.4971 106.054 66.431 106.066 66.362C106.081 66.2929 106.096 66.2238 106.114 66.1578C106.132 66.0887 106.15 66.0226 106.171 65.9566C106.189 65.8875 106.21 65.8215 106.234 65.7554C106.255 65.6893 106.279 65.6263 106.303 65.5602C106.33 65.4971 106.354 65.4341 106.384 65.371C106.411 65.308 106.438 65.2479 106.468 65.1878C106.498 65.1278 106.528 65.0677 106.561 65.0107C106.594 64.9536 106.628 64.8966 106.661 64.8425C106.697 64.7885 106.73 64.7344 106.769 64.6834C106.805 64.6323 106.841 64.5843 106.88 64.5362C106.919 64.4882 106.958 64.4431 107 64.3981C107.165 64.2209 109.024 62.9867 112.603 61.5423C116.18 60.0949 121.471 58.4373 128.504 57.4133C134.302 56.5695 139.104 56.4374 142.575 56.5725C146.05 56.7107 148.194 57.1131 148.683 57.3413C148.749 57.3683 148.812 57.4013 148.872 57.4374C148.935 57.4764 148.995 57.5184 149.052 57.5605C149.109 57.6055 149.164 57.6566 149.218 57.7076C149.272 57.7617 149.323 57.8187 149.371 57.8758C149.422 57.9359 149.467 57.9989 149.512 58.065C149.557 58.131 149.602 58.1971 149.641 58.2692C149.683 58.3382 149.722 58.4133 149.758 58.4884C149.797 58.5635 149.83 58.6415 149.863 58.7226C149.896 58.8007 149.926 58.8848 149.956 58.9688C149.986 59.0499 150.01 59.137 150.037 59.2211C150.061 59.3082 150.085 59.3953 150.106 59.4853C150.127 59.5724 150.145 59.6625 150.163 59.7526C150.178 59.8427 150.197 59.9328 150.209 60.0259C150.221 60.116 150.233 60.209 150.242 60.2991C150.251 60.3892 150.26 60.4823 150.263 60.5724C150.269 60.6655 150.275 60.7556 150.275 60.8457C150.278 60.9357 150.278 61.0258 150.275 61.1129C150.272 61.203 150.269 61.2901 150.263 61.3772C150.257 61.4612 150.251 61.5453 150.242 61.6294C150.23 61.7135 150.221 61.7946 150.206 61.8756C150.194 61.9537 150.178 62.0318 150.16 62.1099C150.145 62.1849 150.127 62.257 150.106 62.3291C150.085 62.3982 150.064 62.4672 150.04 62.5333C150.016 62.5993 149.989 62.6594 149.962 62.7195C149.935 62.7795 149.905 62.8336 149.875 62.8876C149.842 62.9387 149.812 62.9897 149.776 63.0348C149.74 63.0768 149.704 63.1188 149.668 63.1549C149.629 63.1939 149.59 63.227 149.548 63.254C149.506 63.281 149.464 63.308 149.419 63.326C149.374 63.3441 149.329 63.3591 149.281 63.3681C149.233 63.3771 149.182 63.3801 149.13 63.3771C149.079 63.3771 149.025 63.3681 148.971 63.3561Z" fill="black"/>
<path d="M153.532 63.9718C154.097 63.3982 155.229 62.7766 156.718 62.2391C158.205 61.7046 160.055 61.2542 162.052 61.0259C163.039 60.9148 164.015 60.8548 165.114 60.8728C166.217 60.8878 167.439 60.9809 168.916 61.1731C168.988 61.1851 169.06 61.1971 169.126 61.2151C169.195 61.2331 169.261 61.2542 169.325 61.2782C169.388 61.3022 169.448 61.3292 169.508 61.3623C169.565 61.3923 169.622 61.4283 169.676 61.4644C169.73 61.5034 169.781 61.5424 169.832 61.5875C169.88 61.6295 169.928 61.6746 169.973 61.7256C170.018 61.7737 170.06 61.8247 170.099 61.8758C170.141 61.9298 170.18 61.9839 170.216 62.0439C170.252 62.101 170.285 62.158 170.318 62.2211C170.349 62.2811 170.379 62.3442 170.406 62.4073C170.436 62.4703 170.46 62.5364 170.484 62.6025C170.508 62.6685 170.532 62.7376 170.55 62.8067C170.571 62.8757 170.589 62.9448 170.604 63.0139C170.619 63.0859 170.634 63.155 170.646 63.2271C170.658 63.2991 170.67 63.3682 170.679 63.4403C170.685 63.5123 170.694 63.5844 170.697 63.6565C170.703 63.7285 170.706 63.8006 170.709 63.8697C170.709 63.9417 170.709 64.0108 170.709 64.0829C170.706 64.152 170.703 64.221 170.697 64.2901C170.691 64.3592 170.685 64.4252 170.676 64.4913C170.67 64.5573 170.658 64.6234 170.646 64.6865C170.637 64.7495 170.622 64.8126 170.607 64.8726C170.595 64.9327 170.577 64.9928 170.559 65.0468C170.544 65.1039 170.523 65.1609 170.505 65.212C170.484 65.266 170.463 65.3141 170.439 65.3621C170.415 65.4102 170.391 65.4552 170.367 65.4972C170.34 65.5423 170.312 65.5813 170.285 65.6174C170.255 65.6534 170.225 65.6894 170.195 65.7195C170.165 65.7495 170.132 65.7765 170.099 65.8005C170.066 65.8246 170.03 65.8426 169.997 65.8606C169.961 65.8756 169.925 65.8876 169.886 65.8966C169.85 65.9056 169.811 65.9086 169.769 65.9086C169.4 65.9086 168.544 65.6234 167.268 65.3921C165.994 65.1609 164.304 64.9838 162.265 65.2C160.292 65.4102 158.64 65.9177 157.37 66.4041C156.097 66.8876 155.205 67.347 154.745 67.4611C154.697 67.4732 154.652 67.4822 154.604 67.4912C154.559 67.4972 154.511 67.5002 154.466 67.5032C154.418 67.5062 154.373 67.5062 154.328 67.5032C154.283 67.5032 154.238 67.4972 154.193 67.4912C154.148 67.4852 154.103 67.4762 154.058 67.4671C154.013 67.4551 153.971 67.4431 153.929 67.4281C153.884 67.4161 153.842 67.3981 153.803 67.3801C153.761 67.362 153.718 67.341 153.679 67.32C153.64 67.299 153.601 67.275 153.562 67.2509C153.523 67.2269 153.487 67.1999 153.451 67.1699C153.412 67.1428 153.379 67.1128 153.343 67.0828C153.31 67.0497 153.277 67.0197 153.244 66.9837C153.214 66.9507 153.181 66.9146 153.154 66.8786C153.124 66.8425 153.094 66.8035 153.07 66.7645C153.043 66.7254 153.016 66.6834 152.992 66.6414C152.968 66.6023 152.947 66.5573 152.926 66.5152C152.905 66.4702 152.887 66.4251 152.869 66.3801C152.851 66.3351 152.836 66.287 152.821 66.239C152.806 66.1939 152.794 66.1429 152.785 66.0948C152.773 66.0468 152.764 65.9957 152.758 65.9447C152.752 65.8936 152.746 65.8426 152.743 65.7915C152.743 65.7405 152.74 65.6864 152.743 65.6324C152.743 65.5813 152.749 65.5273 152.755 65.4732C152.761 65.4192 152.767 65.3651 152.779 65.3081C152.788 65.254 152.803 65.2 152.818 65.1429C152.833 65.0889 152.851 65.0318 152.872 64.9777C152.89 64.9207 152.914 64.8636 152.941 64.8096C152.965 64.7525 152.992 64.6955 153.025 64.6414C153.055 64.5844 153.088 64.5273 153.124 64.4703C153.16 64.4162 153.199 64.3592 153.241 64.3051C153.286 64.248 153.331 64.191 153.379 64.1369C153.427 64.0799 153.475 64.0258 153.532 63.9718Z" fill="black"/>
<path d="M147.528 78.4485C147.591 77.5686 148.068 75.6138 149.002 72.9141C149.936 70.2145 151.326 66.7732 153.209 62.9205C155.311 58.6264 157.446 54.8818 159.137 52.1251C160.827 49.3714 162.077 47.6087 162.401 47.2814C162.47 47.2094 162.539 47.1433 162.614 47.0772C162.689 47.0142 162.764 46.9511 162.842 46.8911C162.923 46.831 163.002 46.7739 163.086 46.7169C163.167 46.6628 163.251 46.6088 163.338 46.5577C163.425 46.5067 163.512 46.4586 163.599 46.4136C163.689 46.3655 163.779 46.3235 163.869 46.2815C163.962 46.2394 164.053 46.2004 164.146 46.1614C164.239 46.1253 164.335 46.0893 164.428 46.0563C164.524 46.0232 164.617 45.9932 164.713 45.9662C164.809 45.9361 164.905 45.9091 165.001 45.8851C165.098 45.8611 165.194 45.837 165.287 45.816C165.383 45.795 165.479 45.777 165.575 45.762C165.671 45.7439 165.764 45.7289 165.857 45.7169C165.953 45.7049 166.046 45.6929 166.137 45.6839C166.23 45.6749 166.323 45.6689 166.41 45.6629C166.503 45.6569 166.59 45.6539 166.677 45.6539C166.764 45.6509 166.851 45.6509 166.935 45.6539C167.019 45.6539 167.104 45.6599 167.185 45.6629C167.263 45.6689 167.344 45.6779 167.419 45.6869C167.494 45.6929 167.569 45.7049 167.641 45.7169C167.713 45.7289 167.782 45.744 167.848 45.756C167.914 45.774 167.98 45.789 168.04 45.807C168.1 45.825 168.158 45.846 168.215 45.8671C168.269 45.8881 168.32 45.9121 168.368 45.9361C168.416 45.9602 168.461 45.9872 168.5 46.0142C168.542 46.0412 168.578 46.0683 168.611 46.0983C168.644 46.1283 168.671 46.1584 168.698 46.1914C168.722 46.2244 168.743 46.2574 168.758 46.2935C168.773 46.3295 168.785 46.3655 168.791 46.4016C168.797 46.4406 168.8 46.4797 168.797 46.5187C168.794 46.5607 168.785 46.5998 168.773 46.6418C168.758 46.6869 168.74 46.7289 168.716 46.7739C168.121 47.87 166.647 50.2002 164.896 53.044C163.146 55.8877 161.122 59.242 159.425 62.392C156.587 67.6561 154.939 71.6169 153.9 74.4246C152.861 77.2293 152.434 78.8809 152.041 79.5295C152.017 79.5686 151.99 79.6076 151.957 79.6436C151.927 79.6827 151.897 79.7157 151.861 79.7487C151.825 79.7818 151.786 79.8148 151.747 79.8448C151.705 79.8749 151.663 79.9019 151.618 79.9289C151.573 79.9559 151.527 79.98 151.476 80.004C151.428 80.028 151.377 80.049 151.323 80.07C151.272 80.0911 151.218 80.1091 151.161 80.1271C151.104 80.1421 151.047 80.1571 150.99 80.1721C150.93 80.1842 150.87 80.1962 150.81 80.2082C150.747 80.2172 150.687 80.2262 150.624 80.2352C150.561 80.2412 150.495 80.2472 150.431 80.2502C150.365 80.2562 150.302 80.2592 150.236 80.2592C150.17 80.2592 150.104 80.2592 150.038 80.2562C149.972 80.2532 149.906 80.2502 149.84 80.2442C149.774 80.2412 149.708 80.2322 149.642 80.2232C149.576 80.2172 149.51 80.2052 149.443 80.1932C149.377 80.1812 149.311 80.1691 149.248 80.1541C149.182 80.1391 149.119 80.1241 149.056 80.1061C148.993 80.0881 148.933 80.067 148.87 80.046C148.81 80.025 148.75 80.001 148.693 79.977C148.633 79.9529 148.576 79.9289 148.522 79.9019C148.465 79.8749 148.41 79.8448 148.359 79.8148C148.305 79.7848 148.254 79.7517 148.206 79.7187C148.158 79.6857 148.11 79.6496 148.068 79.6136C148.023 79.5776 147.981 79.5385 147.939 79.4995C147.9 79.4605 147.864 79.4184 147.828 79.3764C147.792 79.3343 147.762 79.2893 147.732 79.2443C147.702 79.1992 147.675 79.1512 147.651 79.1031C147.627 79.0551 147.609 79.004 147.591 78.953C147.573 78.9019 147.558 78.8479 147.549 78.7938C147.537 78.7398 147.531 78.6827 147.528 78.6257C147.525 78.5686 147.525 78.5085 147.528 78.4485Z" fill="black"/>
<path d="M170.109 81.1838C169.475 81.1597 168.43 80.7904 166.679 80.4661C164.926 80.1448 162.463 79.8685 158.989 80.0367C154.797 80.2409 151.806 80.6192 149.713 80.9285C147.62 81.2348 146.428 81.469 145.83 81.3759C145.788 81.3699 145.746 81.3609 145.71 81.3489C145.671 81.3369 145.635 81.3189 145.602 81.3009C145.569 81.2829 145.539 81.2618 145.509 81.2378C145.482 81.2138 145.455 81.1868 145.431 81.1567C145.407 81.1267 145.383 81.0967 145.365 81.0606C145.344 81.0276 145.326 80.9916 145.311 80.9525C145.296 80.9135 145.281 80.8745 145.269 80.8324C145.26 80.7874 145.248 80.7453 145.242 80.6973C145.233 80.6523 145.227 80.6042 145.224 80.5532C145.221 80.5051 145.218 80.4541 145.218 80.4C145.218 80.349 145.221 80.2949 145.224 80.2409C145.227 80.1838 145.233 80.1297 145.239 80.0697C145.245 80.0126 145.254 79.9556 145.266 79.8955C145.275 79.8385 145.287 79.7784 145.302 79.7153C145.314 79.6553 145.329 79.5952 145.344 79.5322C145.362 79.4721 145.38 79.4091 145.398 79.346C145.419 79.2829 145.44 79.2229 145.461 79.1598C145.485 79.0968 145.506 79.0337 145.533 78.9706C145.557 78.9076 145.584 78.8445 145.611 78.7814C145.638 78.7184 145.665 78.6553 145.695 78.5953C145.725 78.5322 145.758 78.4721 145.788 78.4121C145.821 78.349 145.854 78.289 145.887 78.2289C145.923 78.1719 145.959 78.1118 145.996 78.0547C146.032 77.9977 146.068 77.9406 146.107 77.8866C146.146 77.8295 146.185 77.7755 146.224 77.7244C146.263 77.6704 146.305 77.6193 146.347 77.5683C146.386 77.5202 146.428 77.4692 146.473 77.4241C146.515 77.3761 146.56 77.331 146.602 77.289C146.647 77.247 146.692 77.2049 146.74 77.1659C146.785 77.1269 146.83 77.0908 146.878 77.0548C146.923 77.0218 146.971 76.9887 147.02 76.9587C147.068 76.9287 147.116 76.9016 147.164 76.8776C147.473 76.7185 149.098 76.4062 151.338 76.1119C153.578 75.8146 156.431 75.5353 159.19 75.4392C161.893 75.3461 163.902 75.4002 165.394 75.5263C166.887 75.6554 167.869 75.8566 168.511 76.0638C168.577 76.0848 168.643 76.1089 168.709 76.1389C168.775 76.1659 168.842 76.199 168.905 76.235C168.971 76.268 169.034 76.3071 169.097 76.3491C169.16 76.3911 169.22 76.4362 169.28 76.4842C169.34 76.5293 169.4 76.5803 169.457 76.6314C169.517 76.6854 169.574 76.7395 169.628 76.7965C169.685 76.8536 169.739 76.9136 169.793 76.9737C169.848 77.0338 169.899 77.0968 169.95 77.1629C170.001 77.2259 170.052 77.295 170.097 77.3611C170.145 77.4301 170.193 77.4992 170.238 77.5683C170.283 77.6403 170.325 77.7124 170.367 77.7845C170.409 77.8566 170.448 77.9286 170.487 78.0037C170.526 78.0788 170.562 78.1508 170.598 78.2289C170.634 78.304 170.667 78.3791 170.697 78.4541C170.727 78.5292 170.757 78.6043 170.784 78.6824C170.814 78.7574 170.838 78.8325 170.862 78.9076C170.887 78.9826 170.908 79.0577 170.929 79.1328C170.947 79.2049 170.965 79.2799 170.98 79.352C170.995 79.4241 171.007 79.4961 171.019 79.5682C171.028 79.6373 171.037 79.7063 171.043 79.7754C171.049 79.8445 171.055 79.9105 171.055 79.9766C171.055 80.0397 171.055 80.1027 171.052 80.1658C171.049 80.2258 171.043 80.2859 171.034 80.343C171.025 80.4 171.013 80.4571 170.998 80.5081C170.986 80.5622 170.968 80.6132 170.95 80.6613C170.929 80.7093 170.908 80.7543 170.884 80.7964C170.856 80.8384 170.829 80.8775 170.799 80.9135C170.769 80.9495 170.733 80.9826 170.697 81.0126C170.661 81.0396 170.622 81.0667 170.577 81.0907C170.535 81.1117 170.49 81.1297 170.442 81.1447C170.391 81.1597 170.34 81.1687 170.286 81.1778C170.229 81.1838 170.172 81.1868 170.109 81.1838Z" fill="black"/>
<path d="M180.118 53.8903C179.541 53.9383 178.959 53.5359 177.346 53.2446C175.73 52.9503 173.085 52.7642 168.388 53.2446C164.77 53.614 161.371 54.2746 158.809 54.8452C156.251 55.4127 154.533 55.8902 154.284 55.8842C154.221 55.8842 154.158 55.8812 154.101 55.8722C154.044 55.8662 153.992 55.8541 153.941 55.8421C153.893 55.8271 153.845 55.8121 153.803 55.7911C153.761 55.7731 153.722 55.749 153.686 55.725C153.65 55.701 153.62 55.674 153.59 55.6439C153.56 55.6139 153.536 55.5809 153.512 55.5448C153.491 55.5118 153.47 55.4758 153.452 55.4367C153.437 55.3977 153.422 55.3557 153.413 55.3136C153.401 55.2686 153.392 55.2235 153.389 55.1785C153.383 55.1304 153.38 55.0824 153.38 55.0314C153.38 54.9833 153.383 54.9323 153.386 54.8782C153.392 54.8242 153.398 54.7701 153.41 54.716C153.419 54.659 153.431 54.6019 153.443 54.5449C153.458 54.4878 153.476 54.4278 153.494 54.3707C153.512 54.3107 153.533 54.2506 153.554 54.1875C153.575 54.1275 153.602 54.0644 153.626 54.0044C153.653 53.9413 153.68 53.8782 153.71 53.8152C153.74 53.7521 153.77 53.6891 153.803 53.626C153.836 53.5629 153.869 53.4999 153.905 53.4338C153.941 53.3708 153.977 53.3077 154.016 53.2446C154.056 53.1816 154.095 53.1185 154.134 53.0554C154.176 52.9924 154.218 52.9323 154.26 52.8693C154.302 52.8092 154.347 52.7462 154.392 52.6861C154.437 52.626 154.482 52.569 154.527 52.5089C154.575 52.4519 154.62 52.3918 154.668 52.3378C154.716 52.2807 154.764 52.2266 154.812 52.1726C154.86 52.1185 154.911 52.0645 154.959 52.0134C155.01 51.9624 155.059 51.9143 155.11 51.8663C155.161 51.8183 155.209 51.7702 155.26 51.7252C155.311 51.6831 155.362 51.6381 155.413 51.599C155.461 51.56 155.512 51.521 155.563 51.4849C155.614 51.4489 155.662 51.4129 155.713 51.3828C156.001 51.1967 157.647 50.6982 160.067 50.1637C162.488 49.6291 165.683 49.0586 169.073 48.7343C173.118 48.3469 176.118 48.3349 178.316 48.4971C180.514 48.6622 181.913 49.0015 182.751 49.3228C182.808 49.3439 182.859 49.3679 182.907 49.3949C182.952 49.4219 182.994 49.452 183.033 49.485C183.073 49.515 183.109 49.5511 183.139 49.5871C183.172 49.6261 183.199 49.6652 183.223 49.7072C183.247 49.7493 183.265 49.7943 183.283 49.8393C183.298 49.8844 183.313 49.9324 183.322 49.9835C183.331 50.0315 183.337 50.0826 183.34 50.1366C183.346 50.1907 183.346 50.2447 183.343 50.3018C183.34 50.3558 183.334 50.4129 183.325 50.473C183.316 50.533 183.304 50.5901 183.289 50.6531C183.277 50.7132 183.259 50.7732 183.238 50.8363C183.22 50.8994 183.199 50.9624 183.172 51.0255C183.148 51.0886 183.121 51.1546 183.094 51.2177C183.064 51.2837 183.033 51.3498 183 51.4129C182.967 51.4789 182.931 51.545 182.892 51.6081C182.856 51.6741 182.817 51.7402 182.775 51.8032C182.736 51.8693 182.691 51.9354 182.649 51.9984C182.604 52.0615 182.559 52.1276 182.511 52.1906C182.463 52.2537 182.415 52.3137 182.364 52.3768C182.316 52.4369 182.265 52.4999 182.211 52.557C182.16 52.617 182.106 52.6771 182.052 52.7341C181.997 52.7912 181.94 52.8482 181.886 52.9023C181.829 52.9564 181.772 53.0104 181.715 53.0615C181.658 53.1125 181.598 53.1605 181.538 53.2086C181.481 53.2566 181.421 53.3017 181.361 53.3467C181.304 53.3918 181.244 53.4338 181.184 53.4729C181.121 53.5119 181.061 53.5479 181.001 53.584C180.94 53.617 180.88 53.65 180.82 53.6801C180.76 53.7101 180.7 53.7371 180.64 53.7611C180.583 53.7821 180.523 53.8032 180.463 53.8212C180.403 53.8392 180.346 53.8542 180.289 53.8662C180.232 53.8782 180.172 53.8872 180.118 53.8903Z" fill="black"/>
</svg>
