<svg width="131" height="125" viewBox="0 0 131 125" fill="none" xmlns="http://www.w3.org/2000/svg">
<path d="M104.875 29C105.899 29 106.826 29.3495 107.657 30.0484C108.552 30.7473 109 31.7321 109 33.0028C109 33.4476 108.936 33.9241 108.808 34.4324L88.3771 93.522C88.1213 94.2845 87.6417 94.8881 86.9383 95.3329C86.2988 95.7141 85.6273 95.9365 84.9239 96C84.1566 96 83.4212 95.8094 82.7178 95.4282C82.0143 94.9834 81.4708 94.348 81.0871 93.522L65.0684 55.0185L65.8357 55.3044L49.9129 93.522C49.5292 94.348 48.9857 94.9834 48.2822 95.4282C47.5788 95.8094 46.8434 96 46.0761 96C45.3727 95.9365 44.6692 95.7141 43.9658 95.3329C43.3263 94.8881 42.8787 94.2845 42.6229 93.522L22.1918 34.4324C22.0639 33.9241 22 33.4794 22 33.0981C22 31.8274 22.4476 30.8426 23.3429 30.1437C24.3021 29.3812 25.2613 29 26.2205 29C26.9879 29 27.7233 29.2224 28.4267 29.6671C29.1301 30.1119 29.6097 30.7155 29.8655 31.4779L47.8026 84.0868H46.4598L62.0948 45.6785C62.4146 44.9161 62.8942 44.3125 63.5336 43.8677C64.1731 43.423 64.9085 43.2006 65.7398 43.2006C66.5072 43.2006 67.2106 43.423 67.8501 43.8677C68.5535 44.3125 69.0331 44.9161 69.2889 45.6785L84.4443 83.5149L83.2933 83.9915L101.135 31.4779C101.39 30.7155 101.87 30.1119 102.573 29.6671C103.277 29.2224 104.044 29 104.875 29Z" fill="#4E4E4E"/>
</svg>
